solid OpenSCAD_Model
  facet normal 1 -0 0
    outer loop
      vertex 75 0 27
      vertex 75 14 19.7099
      vertex 75 14 27
    endloop
  endfacet
  facet normal 1 0 0
    outer loop
      vertex 75 14 19.7099
      vertex 75 0 27
      vertex 75 0 19.7099
    endloop
  endfacet
  facet normal 0 0 1
    outer loop
      vertex 75 14 27
      vertex 71.85 7 27
      vertex 75 0 27
    endloop
  endfacet
  facet normal 0 0 1
    outer loop
      vertex 75 14 27
      vertex 71.409 8.78918 27
      vertex 71.85 7 27
    endloop
  endfacet
  facet normal 0 0 1
    outer loop
      vertex 75 14 27
      vertex 70.187 10.1685 27
      vertex 71.409 8.78918 27
    endloop
  endfacet
  facet normal 0 0 1
    outer loop
      vertex 75 14 27
      vertex 68.4641 10.8219 27
      vertex 70.187 10.1685 27
    endloop
  endfacet
  facet normal -0 0 1
    outer loop
      vertex 60 13 27
      vertex 68.4641 10.8219 27
      vertex 75 14 27
    endloop
  endfacet
  facet normal 0 0 1
    outer loop
      vertex 64.2619 7.92136 27
      vertex 60 13 27
      vertex 64.2619 6.07863 27
    endloop
  endfacet
  facet normal 0 0 1
    outer loop
      vertex 65.1182 9.55302 27
      vertex 60 13 27
      vertex 64.2619 7.92136 27
    endloop
  endfacet
  facet normal 0 0 1
    outer loop
      vertex 66.6348 10.5998 27
      vertex 60 13 27
      vertex 65.1182 9.55302 27
    endloop
  endfacet
  facet normal 0 0 1
    outer loop
      vertex 68.4641 10.8219 27
      vertex 60 13 27
      vertex 66.6348 10.5998 27
    endloop
  endfacet
  facet normal 0 0 1
    outer loop
      vertex 75 14 27
      vertex 15 13 27
      vertex 60 13 27
    endloop
  endfacet
  facet normal 0 0 1
    outer loop
      vertex 15 13 27
      vertex 10.85 7 27
      vertex 15 1 27
    endloop
  endfacet
  facet normal 0 0 1
    outer loop
      vertex 15 13 27
      vertex 10.409 8.78918 27
      vertex 10.85 7 27
    endloop
  endfacet
  facet normal 0 0 1
    outer loop
      vertex 15 13 27
      vertex 9.18705 10.1685 27
      vertex 10.409 8.78918 27
    endloop
  endfacet
  facet normal 0 0 1
    outer loop
      vertex 15 13 27
      vertex 7.46407 10.8219 27
      vertex 9.18705 10.1685 27
    endloop
  endfacet
  facet normal 0 0 1
    outer loop
      vertex 0 14 27
      vertex 7.46407 10.8219 27
      vertex 15 13 27
    endloop
  endfacet
  facet normal 0 0 1
    outer loop
      vertex 3.26187 7.92136 27
      vertex 0 14 27
      vertex 3.26187 6.07863 27
    endloop
  endfacet
  facet normal 0 0 1
    outer loop
      vertex 4.11823 9.55302 27
      vertex 0 14 27
      vertex 3.26187 7.92136 27
    endloop
  endfacet
  facet normal 0 0 1
    outer loop
      vertex 5.63477 10.5998 27
      vertex 0 14 27
      vertex 4.11823 9.55302 27
    endloop
  endfacet
  facet normal 0 0 1
    outer loop
      vertex 7.46407 10.8219 27
      vertex 0 14 27
      vertex 5.63477 10.5998 27
    endloop
  endfacet
  facet normal -0 0 1
    outer loop
      vertex 0 14 27
      vertex 15 13 27
      vertex 75 14 27
    endloop
  endfacet
  facet normal -0 0 1
    outer loop
      vertex 71.409 5.21082 27
      vertex 75 0 27
      vertex 71.85 7 27
    endloop
  endfacet
  facet normal -0 0 1
    outer loop
      vertex 70.187 3.83151 27
      vertex 75 0 27
      vertex 71.409 5.21082 27
    endloop
  endfacet
  facet normal -0 0 1
    outer loop
      vertex 68.4641 3.17807 27
      vertex 75 0 27
      vertex 70.187 3.83151 27
    endloop
  endfacet
  facet normal 0 0 1
    outer loop
      vertex 60 1 27
      vertex 68.4641 3.17807 27
      vertex 66.6348 3.40019 27
    endloop
  endfacet
  facet normal 0 0 1
    outer loop
      vertex 60 1 27
      vertex 64.2619 6.07863 27
      vertex 60 13 27
    endloop
  endfacet
  facet normal 0 0 1
    outer loop
      vertex 64.2619 6.07863 27
      vertex 60 1 27
      vertex 65.1182 4.44698 27
    endloop
  endfacet
  facet normal 0 0 1
    outer loop
      vertex 60 1 27
      vertex 66.6348 3.40019 27
      vertex 65.1182 4.44698 27
    endloop
  endfacet
  facet normal 0 0 1
    outer loop
      vertex 68.4641 3.17807 27
      vertex 60 1 27
      vertex 75 0 27
    endloop
  endfacet
  facet normal -0 0 1
    outer loop
      vertex 15 1 27
      vertex 75 0 27
      vertex 60 1 27
    endloop
  endfacet
  facet normal -0 0 1
    outer loop
      vertex 10.409 5.21082 27
      vertex 15 1 27
      vertex 10.85 7 27
    endloop
  endfacet
  facet normal -0 0 1
    outer loop
      vertex 9.18705 3.83151 27
      vertex 15 1 27
      vertex 10.409 5.21082 27
    endloop
  endfacet
  facet normal -0 0 1
    outer loop
      vertex 7.46407 3.17807 27
      vertex 15 1 27
      vertex 9.18705 3.83151 27
    endloop
  endfacet
  facet normal 0 0 1
    outer loop
      vertex 0 0 27
      vertex 7.46407 3.17807 27
      vertex 5.63477 3.40019 27
    endloop
  endfacet
  facet normal 0 0 1
    outer loop
      vertex 15 1 27
      vertex 0 0 27
      vertex 75 0 27
    endloop
  endfacet
  facet normal 0 0 1
    outer loop
      vertex 7.46407 3.17807 27
      vertex 0 0 27
      vertex 15 1 27
    endloop
  endfacet
  facet normal 0 0 1
    outer loop
      vertex 4.11823 4.44698 27
      vertex 0 0 27
      vertex 5.63477 3.40019 27
    endloop
  endfacet
  facet normal 0 0 1
    outer loop
      vertex 3.26187 6.07863 27
      vertex 0 0 27
      vertex 4.11823 4.44698 27
    endloop
  endfacet
  facet normal 0 0 1
    outer loop
      vertex 0 0 27
      vertex 3.26187 6.07863 27
      vertex 0 14 27
    endloop
  endfacet
  facet normal 0 0 -1
    outer loop
      vertex 19.7099 0 0
      vertex 53.8637 14 0
      vertex 53.8637 0 0
    endloop
  endfacet
  facet normal -0 0 -1
    outer loop
      vertex 53.8637 14 0
      vertex 19.7099 0 0
      vertex 19.7099 14 0
    endloop
  endfacet
  facet normal -1 0 0
    outer loop
      vertex 0 0 21.1363
      vertex 0 14 27
      vertex 0 14 21.1363
    endloop
  endfacet
  facet normal -1 -0 0
    outer loop
      vertex 0 14 27
      vertex 0 0 21.1363
      vertex 0 0 27
    endloop
  endfacet
  facet normal 0 1 -0
    outer loop
      vertex 53.8637 14 0
      vertex 0 14 27
      vertex 75 14 27
    endloop
  endfacet
  facet normal 0 1 0
    outer loop
      vertex 53.8637 14 0
      vertex 75 14 27
      vertex 75 14 19.7099
    endloop
  endfacet
  facet normal 0 1 -0
    outer loop
      vertex 19.7099 14 0
      vertex 0 14 27
      vertex 53.8637 14 0
    endloop
  endfacet
  facet normal 0 1 0
    outer loop
      vertex 0 14 27
      vertex 19.7099 14 0
      vertex 0 14 21.1363
    endloop
  endfacet
  facet normal 0 -1 0
    outer loop
      vertex 19.7099 0 0
      vertex 0 0 27
      vertex 0 0 21.1363
    endloop
  endfacet
  facet normal 0 -1 0
    outer loop
      vertex 0 0 27
      vertex 53.8637 0 0
      vertex 75 0 27
    endloop
  endfacet
  facet normal 0 -1 0
    outer loop
      vertex 0 0 27
      vertex 19.7099 0 0
      vertex 53.8637 0 0
    endloop
  endfacet
  facet normal 0 -1 -0
    outer loop
      vertex 75 0 27
      vertex 53.8637 0 0
      vertex 75 0 19.7099
    endloop
  endfacet
  facet normal -0.885456 0.464723 0
    outer loop
      vertex 3.26187 7.92136 27
      vertex 4.11823 9.55302 29.8
      vertex 4.11823 9.55302 27
    endloop
  endfacet
  facet normal -0.885456 0.464723 0
    outer loop
      vertex 4.11823 9.55302 29.8
      vertex 3.26187 7.92136 27
      vertex 3.26187 7.92136 29.8
    endloop
  endfacet
  facet normal -0.885456 0.464723 0
    outer loop
      vertex 3.26187 7.92136 33.8
      vertex 4.11823 9.55302 33.9
      vertex 4.11823 9.55302 33.8
    endloop
  endfacet
  facet normal -0.885456 0.464723 0
    outer loop
      vertex 4.11823 9.55302 33.9
      vertex 3.26187 7.92136 33.8
      vertex 3.26187 7.92136 33.9
    endloop
  endfacet
  facet normal 0.748516 0.663116 0
    outer loop
      vertex 10.409 8.78918 29.8
      vertex 9.18705 10.1685 27
      vertex 9.18705 10.1685 29.8
    endloop
  endfacet
  facet normal 0.748516 0.663116 0
    outer loop
      vertex 9.18705 10.1685 27
      vertex 10.409 8.78918 29.8
      vertex 10.409 8.78918 27
    endloop
  endfacet
  facet normal 0.748516 0.663116 0
    outer loop
      vertex 10.409 8.78918 33.9
      vertex 9.18705 10.1685 33.8
      vertex 9.18705 10.1685 33.9
    endloop
  endfacet
  facet normal 0.748516 0.663116 0
    outer loop
      vertex 9.18705 10.1685 33.8
      vertex 10.409 8.78918 33.9
      vertex 10.409 8.78918 33.8
    endloop
  endfacet
  facet normal 0.970941 0.239319 0
    outer loop
      vertex 10.85 7 29.8
      vertex 10.409 8.78918 27
      vertex 10.409 8.78918 29.8
    endloop
  endfacet
  facet normal 0.970941 0.239319 0
    outer loop
      vertex 10.409 8.78918 27
      vertex 10.85 7 29.8
      vertex 10.85 7 27
    endloop
  endfacet
  facet normal 0.970941 0.239319 0
    outer loop
      vertex 10.85 7 33.9
      vertex 10.409 8.78918 33.8
      vertex 10.409 8.78918 33.9
    endloop
  endfacet
  facet normal 0.970941 0.239319 0
    outer loop
      vertex 10.409 8.78918 33.8
      vertex 10.85 7 33.9
      vertex 10.85 7 33.8
    endloop
  endfacet
  facet normal -0.885455 -0.464725 0
    outer loop
      vertex 4.11823 4.44698 27
      vertex 3.26187 6.07863 29.8
      vertex 3.26187 6.07863 27
    endloop
  endfacet
  facet normal -0.885455 -0.464725 0
    outer loop
      vertex 3.26187 6.07863 29.8
      vertex 4.11823 4.44698 27
      vertex 4.11823 4.44698 29.8
    endloop
  endfacet
  facet normal -0.885455 -0.464725 0
    outer loop
      vertex 4.11823 4.44698 33.8
      vertex 3.26187 6.07863 33.9
      vertex 3.26187 6.07863 33.8
    endloop
  endfacet
  facet normal -0.885455 -0.464725 0
    outer loop
      vertex 3.26187 6.07863 33.9
      vertex 4.11823 4.44698 33.8
      vertex 4.11823 4.44698 33.9
    endloop
  endfacet
  facet normal 0.354605 -0.935016 0
    outer loop
      vertex 7.46407 3.17807 27
      vertex 9.18705 3.83151 29.8
      vertex 7.46407 3.17807 29.8
    endloop
  endfacet
  facet normal 0.354605 -0.935016 0
    outer loop
      vertex 9.18705 3.83151 29.8
      vertex 7.46407 3.17807 27
      vertex 9.18705 3.83151 27
    endloop
  endfacet
  facet normal 0.354605 -0.935016 0
    outer loop
      vertex 7.46407 3.17807 33.8
      vertex 9.18705 3.83151 33.9
      vertex 7.46407 3.17807 33.9
    endloop
  endfacet
  facet normal 0.354605 -0.935016 0
    outer loop
      vertex 9.18705 3.83151 33.9
      vertex 7.46407 3.17807 33.8
      vertex 9.18705 3.83151 33.8
    endloop
  endfacet
  facet normal 0 0 1
    outer loop
      vertex 10.409 8.78918 33.9
      vertex 10.409 5.21082 33.9
      vertex 10.85 7 33.9
    endloop
  endfacet
  facet normal 0 0 1
    outer loop
      vertex 9.18705 10.1685 33.9
      vertex 10.409 5.21082 33.9
      vertex 10.409 8.78918 33.9
    endloop
  endfacet
  facet normal 0 0 1
    outer loop
      vertex 9.18705 10.1685 33.9
      vertex 9.18705 3.83151 33.9
      vertex 10.409 5.21082 33.9
    endloop
  endfacet
  facet normal 0 0 1
    outer loop
      vertex 7.46407 10.8219 33.9
      vertex 9.18705 3.83151 33.9
      vertex 9.18705 10.1685 33.9
    endloop
  endfacet
  facet normal 0 0 1
    outer loop
      vertex 7.46407 10.8219 33.9
      vertex 7.46407 3.17807 33.9
      vertex 9.18705 3.83151 33.9
    endloop
  endfacet
  facet normal -0 0 1
    outer loop
      vertex 5.63477 10.5998 33.9
      vertex 7.46407 3.17807 33.9
      vertex 7.46407 10.8219 33.9
    endloop
  endfacet
  facet normal 0 0 1
    outer loop
      vertex 5.63477 10.5998 33.9
      vertex 5.63477 3.40019 33.9
      vertex 7.46407 3.17807 33.9
    endloop
  endfacet
  facet normal -0 0 1
    outer loop
      vertex 4.11823 9.55302 33.9
      vertex 5.63477 3.40019 33.9
      vertex 5.63477 10.5998 33.9
    endloop
  endfacet
  facet normal 0 0 1
    outer loop
      vertex 4.11823 9.55302 33.9
      vertex 4.11823 4.44698 33.9
      vertex 5.63477 3.40019 33.9
    endloop
  endfacet
  facet normal -0 0 1
    outer loop
      vertex 3.26187 7.92136 33.9
      vertex 4.11823 4.44698 33.9
      vertex 4.11823 9.55302 33.9
    endloop
  endfacet
  facet normal 0 0 1
    outer loop
      vertex 4.11823 4.44698 33.9
      vertex 3.26187 7.92136 33.9
      vertex 3.26187 6.07863 33.9
    endloop
  endfacet
  facet normal 0.354586 0.935023 -0
    outer loop
      vertex 9.18705 10.1685 27
      vertex 7.46407 10.8219 29.8
      vertex 9.18705 10.1685 29.8
    endloop
  endfacet
  facet normal 0.354586 0.935023 0
    outer loop
      vertex 7.46407 10.8219 29.8
      vertex 9.18705 10.1685 27
      vertex 7.46407 10.8219 27
    endloop
  endfacet
  facet normal 0.354586 0.935023 -0
    outer loop
      vertex 9.18705 10.1685 33.8
      vertex 7.46407 10.8219 33.9
      vertex 9.18705 10.1685 33.9
    endloop
  endfacet
  facet normal 0.354586 0.935023 0
    outer loop
      vertex 7.46407 10.8219 33.9
      vertex 9.18705 10.1685 33.8
      vertex 7.46407 10.8219 33.8
    endloop
  endfacet
  facet normal -0.120527 0.99271 0
    outer loop
      vertex 7.46407 10.8219 27
      vertex 5.63477 10.5998 29.8
      vertex 7.46407 10.8219 29.8
    endloop
  endfacet
  facet normal -0.120527 0.99271 0
    outer loop
      vertex 5.63477 10.5998 29.8
      vertex 7.46407 10.8219 27
      vertex 5.63477 10.5998 27
    endloop
  endfacet
  facet normal -0.120527 0.99271 0
    outer loop
      vertex 7.46407 10.8219 33.8
      vertex 5.63477 10.5998 33.9
      vertex 7.46407 10.8219 33.9
    endloop
  endfacet
  facet normal -0.120527 0.99271 0
    outer loop
      vertex 5.63477 10.5998 33.9
      vertex 7.46407 10.8219 33.8
      vertex 5.63477 10.5998 33.8
    endloop
  endfacet
  facet normal -1 0 0
    outer loop
      vertex 3.26187 6.07863 27
      vertex 3.26187 7.92136 29.8
      vertex 3.26187 7.92136 27
    endloop
  endfacet
  facet normal -1 -0 0
    outer loop
      vertex 3.26187 7.92136 29.8
      vertex 3.26187 6.07863 27
      vertex 3.26187 6.07863 29.8
    endloop
  endfacet
  facet normal -1 0 0
    outer loop
      vertex 3.26187 6.07863 33.8
      vertex 3.26187 7.92136 33.9
      vertex 3.26187 7.92136 33.8
    endloop
  endfacet
  facet normal -1 -0 0
    outer loop
      vertex 3.26187 7.92136 33.9
      vertex 3.26187 6.07863 33.8
      vertex 3.26187 6.07863 33.9
    endloop
  endfacet
  facet normal -0.56806 0.822987 0
    outer loop
      vertex 5.63477 10.5998 27
      vertex 4.11823 9.55302 29.8
      vertex 5.63477 10.5998 29.8
    endloop
  endfacet
  facet normal -0.56806 0.822987 0
    outer loop
      vertex 4.11823 9.55302 29.8
      vertex 5.63477 10.5998 27
      vertex 4.11823 9.55302 27
    endloop
  endfacet
  facet normal -0.56806 0.822987 0
    outer loop
      vertex 5.63477 10.5998 33.8
      vertex 4.11823 9.55302 33.9
      vertex 5.63477 10.5998 33.9
    endloop
  endfacet
  facet normal -0.56806 0.822987 0
    outer loop
      vertex 4.11823 9.55302 33.9
      vertex 5.63477 10.5998 33.8
      vertex 4.11823 9.55302 33.8
    endloop
  endfacet
  facet normal 0.970941 -0.239319 0
    outer loop
      vertex 10.409 5.21082 29.8
      vertex 10.85 7 27
      vertex 10.85 7 29.8
    endloop
  endfacet
  facet normal 0.970941 -0.239319 0
    outer loop
      vertex 10.85 7 27
      vertex 10.409 5.21082 29.8
      vertex 10.409 5.21082 27
    endloop
  endfacet
  facet normal 0.970941 -0.239319 0
    outer loop
      vertex 10.409 5.21082 33.9
      vertex 10.85 7 33.8
      vertex 10.85 7 33.9
    endloop
  endfacet
  facet normal 0.970941 -0.239319 0
    outer loop
      vertex 10.85 7 33.8
      vertex 10.409 5.21082 33.9
      vertex 10.409 5.21082 33.8
    endloop
  endfacet
  facet normal 0.748514 -0.663119 0
    outer loop
      vertex 9.18705 3.83151 29.8
      vertex 10.409 5.21082 27
      vertex 10.409 5.21082 29.8
    endloop
  endfacet
  facet normal 0.748514 -0.663119 0
    outer loop
      vertex 10.409 5.21082 27
      vertex 9.18705 3.83151 29.8
      vertex 9.18705 3.83151 27
    endloop
  endfacet
  facet normal 0.748514 -0.663119 0
    outer loop
      vertex 9.18705 3.83151 33.9
      vertex 10.409 5.21082 33.8
      vertex 10.409 5.21082 33.9
    endloop
  endfacet
  facet normal 0.748514 -0.663119 0
    outer loop
      vertex 10.409 5.21082 33.8
      vertex 9.18705 3.83151 33.9
      vertex 9.18705 3.83151 33.8
    endloop
  endfacet
  facet normal -0.120538 -0.992709 0
    outer loop
      vertex 5.63477 3.40019 27
      vertex 7.46407 3.17807 29.8
      vertex 5.63477 3.40019 29.8
    endloop
  endfacet
  facet normal -0.120538 -0.992709 -0
    outer loop
      vertex 7.46407 3.17807 29.8
      vertex 5.63477 3.40019 27
      vertex 7.46407 3.17807 27
    endloop
  endfacet
  facet normal -0.120538 -0.992709 0
    outer loop
      vertex 5.63477 3.40019 33.8
      vertex 7.46407 3.17807 33.9
      vertex 5.63477 3.40019 33.9
    endloop
  endfacet
  facet normal -0.120538 -0.992709 -0
    outer loop
      vertex 7.46407 3.17807 33.9
      vertex 5.63477 3.40019 33.8
      vertex 7.46407 3.17807 33.8
    endloop
  endfacet
  facet normal -0.568064 -0.822984 0
    outer loop
      vertex 4.11823 4.44698 27
      vertex 5.63477 3.40019 29.8
      vertex 4.11823 4.44698 29.8
    endloop
  endfacet
  facet normal -0.568064 -0.822984 -0
    outer loop
      vertex 5.63477 3.40019 29.8
      vertex 4.11823 4.44698 27
      vertex 5.63477 3.40019 27
    endloop
  endfacet
  facet normal -0.568064 -0.822984 0
    outer loop
      vertex 4.11823 4.44698 33.8
      vertex 5.63477 3.40019 33.9
      vertex 4.11823 4.44698 33.9
    endloop
  endfacet
  facet normal -0.568064 -0.822984 -0
    outer loop
      vertex 5.63477 3.40019 33.9
      vertex 4.11823 4.44698 33.8
      vertex 5.63477 3.40019 33.8
    endloop
  endfacet
  facet normal 0.35365 0.932556 0.0726059
    outer loop
      vertex 9.27226 10.2919 31.8
      vertex 7.46407 10.8219 33.8
      vertex 9.18705 10.1685 33.8
    endloop
  endfacet
  facet normal 0.968377 0.238687 0.0726283
    outer loop
      vertex 11 7 31.8
      vertex 10.409 8.78918 33.8
      vertex 10.85 7 33.8
    endloop
  endfacet
  facet normal 0.968375 0.238696 0.0726199
    outer loop
      vertex 10.5418 8.85889 31.8
      vertex 10.409 8.78918 33.8
      vertex 11 7 31.8
    endloop
  endfacet
  facet normal 0.746534 0.661373 0.0726128
    outer loop
      vertex 9.27226 10.2919 31.8
      vertex 9.18705 10.1685 33.8
      vertex 10.5418 8.85889 31.8
    endloop
  endfacet
  facet normal -0.566567 -0.820808 0.0726311
    outer loop
      vertex 5.63477 3.40019 33.8
      vertex 4.00596 4.34751 31.8
      vertex 5.58158 3.25993 31.8
    endloop
  endfacet
  facet normal -0.883118 0.463495 0.0726284
    outer loop
      vertex 4.11823 9.55302 33.8
      vertex 3.11623 7.95726 31.8
      vertex 3.26187 7.92136 33.8
    endloop
  endfacet
  facet normal -0.883117 0.463498 0.0726258
    outer loop
      vertex 4.00596 9.65249 31.8
      vertex 3.11623 7.95726 31.8
      vertex 4.11823 9.55302 33.8
    endloop
  endfacet
  facet normal -0.120209 0.990087 0.0726515
    outer loop
      vertex 7.46407 10.8219 33.8
      vertex 5.58158 10.7401 31.8
      vertex 5.63477 10.5998 33.8
    endloop
  endfacet
  facet normal -0.883117 -0.463498 0.0726258
    outer loop
      vertex 4.11823 4.44698 33.8
      vertex 3.11623 6.04274 31.8
      vertex 4.00596 4.34751 31.8
    endloop
  endfacet
  facet normal 0.746538 -0.661368 0.0726221
    outer loop
      vertex 10.409 5.21082 33.8
      vertex 9.18705 3.83151 33.8
      vertex 10.5418 5.14111 31.8
    endloop
  endfacet
  facet normal 0.968377 -0.238687 0.0726283
    outer loop
      vertex 10.85 7 33.8
      vertex 10.409 5.21082 33.8
      vertex 11 7 31.8
    endloop
  endfacet
  facet normal -0.883117 -0.463498 0.072626
    outer loop
      vertex 3.26187 6.07863 33.8
      vertex 3.11623 6.04274 31.8
      vertex 4.11823 4.44698 33.8
    endloop
  endfacet
  facet normal -0.120218 -0.990087 0.0726302
    outer loop
      vertex 7.46407 3.17807 33.8
      vertex 5.58158 3.25993 31.8
      vertex 7.48215 3.02916 31.8
    endloop
  endfacet
  facet normal -0.997359 0 0.0726277
    outer loop
      vertex 3.11623 7.95726 31.8
      vertex 3.26187 6.07863 33.8
      vertex 3.26187 7.92136 33.8
    endloop
  endfacet
  facet normal -0.997359 0 0.0726277
    outer loop
      vertex 3.26187 6.07863 33.8
      vertex 3.11623 7.95726 31.8
      vertex 3.11623 6.04274 31.8
    endloop
  endfacet
  facet normal 0.353669 -0.932547 0.0726299
    outer loop
      vertex 9.27226 3.70806 31.8
      vertex 7.46407 3.17807 33.8
      vertex 7.48215 3.02916 31.8
    endloop
  endfacet
  facet normal -0.56656 0.820814 0.072627
    outer loop
      vertex 5.63477 10.5998 33.8
      vertex 4.00596 9.65249 31.8
      vertex 4.11823 9.55302 33.8
    endloop
  endfacet
  facet normal 0.74654 0.661365 0.0726221
    outer loop
      vertex 10.5418 8.85889 31.8
      vertex 9.18705 10.1685 33.8
      vertex 10.409 8.78918 33.8
    endloop
  endfacet
  facet normal -0.120182 0.990092 0.0726259
    outer loop
      vertex 7.48215 10.9708 31.8
      vertex 5.58158 10.7401 31.8
      vertex 7.46407 10.8219 33.8
    endloop
  endfacet
  facet normal 0.353669 0.932547 0.0726253
    outer loop
      vertex 7.48215 10.9708 31.8
      vertex 7.46407 10.8219 33.8
      vertex 9.27226 10.2919 31.8
    endloop
  endfacet
  facet normal -0.566577 0.8208 0.0726472
    outer loop
      vertex 5.58158 10.7401 31.8
      vertex 4.00596 9.65249 31.8
      vertex 5.63477 10.5998 33.8
    endloop
  endfacet
  facet normal -0.12022 -0.990087 0.072632
    outer loop
      vertex 5.63477 3.40019 33.8
      vertex 5.58158 3.25993 31.8
      vertex 7.46407 3.17807 33.8
    endloop
  endfacet
  facet normal 0.968375 -0.238696 0.0726199
    outer loop
      vertex 11 7 31.8
      vertex 10.409 5.21082 33.8
      vertex 10.5418 5.14111 31.8
    endloop
  endfacet
  facet normal 0.353668 -0.932547 0.0726295
    outer loop
      vertex 9.18705 3.83151 33.8
      vertex 7.46407 3.17807 33.8
      vertex 9.27226 3.70806 31.8
    endloop
  endfacet
  facet normal -0.566564 -0.820811 0.0726271
    outer loop
      vertex 4.11823 4.44698 33.8
      vertex 4.00596 4.34751 31.8
      vertex 5.63477 3.40019 33.8
    endloop
  endfacet
  facet normal 0.746542 -0.661362 0.072629
    outer loop
      vertex 10.5418 5.14111 31.8
      vertex 9.18705 3.83151 33.8
      vertex 9.27226 3.70806 31.8
    endloop
  endfacet
  facet normal 0.968377 0.238687 -0.0726283
    outer loop
      vertex 10.85 7 29.8
      vertex 10.409 8.78918 29.8
      vertex 11 7 31.8
    endloop
  endfacet
  facet normal -0.120218 -0.990087 -0.0726302
    outer loop
      vertex 7.48215 3.02916 31.8
      vertex 5.58158 3.25993 31.8
      vertex 7.46407 3.17807 29.8
    endloop
  endfacet
  facet normal 0.74654 0.661365 -0.0726221
    outer loop
      vertex 10.409 8.78918 29.8
      vertex 9.18705 10.1685 29.8
      vertex 10.5418 8.85889 31.8
    endloop
  endfacet
  facet normal 0.35365 0.932556 -0.0726059
    outer loop
      vertex 9.18705 10.1685 29.8
      vertex 7.46407 10.8219 29.8
      vertex 9.27226 10.2919 31.8
    endloop
  endfacet
  facet normal 0.353669 -0.932547 -0.0726299
    outer loop
      vertex 7.48215 3.02916 31.8
      vertex 7.46407 3.17807 29.8
      vertex 9.27226 3.70806 31.8
    endloop
  endfacet
  facet normal -0.56656 0.820814 -0.072627
    outer loop
      vertex 4.11823 9.55302 29.8
      vertex 4.00596 9.65249 31.8
      vertex 5.63477 10.5998 29.8
    endloop
  endfacet
  facet normal -0.997359 0 -0.0726277
    outer loop
      vertex 3.26187 6.07863 29.8
      vertex 3.11623 7.95726 31.8
      vertex 3.26187 7.92136 29.8
    endloop
  endfacet
  facet normal -0.997359 -0 -0.0726277
    outer loop
      vertex 3.11623 7.95726 31.8
      vertex 3.26187 6.07863 29.8
      vertex 3.11623 6.04274 31.8
    endloop
  endfacet
  facet normal 0.746542 -0.661362 -0.072629
    outer loop
      vertex 9.27226 3.70806 31.8
      vertex 9.18705 3.83151 29.8
      vertex 10.5418 5.14111 31.8
    endloop
  endfacet
  facet normal -0.120182 0.990092 -0.0726259
    outer loop
      vertex 7.46407 10.8219 29.8
      vertex 5.58158 10.7401 31.8
      vertex 7.48215 10.9708 31.8
    endloop
  endfacet
  facet normal -0.12022 -0.990087 -0.072632
    outer loop
      vertex 7.46407 3.17807 29.8
      vertex 5.58158 3.25993 31.8
      vertex 5.63477 3.40019 29.8
    endloop
  endfacet
  facet normal -0.883117 -0.463498 -0.072626
    outer loop
      vertex 4.11823 4.44698 29.8
      vertex 3.11623 6.04274 31.8
      vertex 3.26187 6.07863 29.8
    endloop
  endfacet
  facet normal -0.566567 -0.820808 -0.0726311
    outer loop
      vertex 5.58158 3.25993 31.8
      vertex 4.00596 4.34751 31.8
      vertex 5.63477 3.40019 29.8
    endloop
  endfacet
  facet normal 0.968375 0.238696 -0.0726199
    outer loop
      vertex 11 7 31.8
      vertex 10.409 8.78918 29.8
      vertex 10.5418 8.85889 31.8
    endloop
  endfacet
  facet normal 0.353668 -0.932547 -0.0726295
    outer loop
      vertex 9.27226 3.70806 31.8
      vertex 7.46407 3.17807 29.8
      vertex 9.18705 3.83151 29.8
    endloop
  endfacet
  facet normal -0.883117 -0.463498 -0.0726258
    outer loop
      vertex 4.00596 4.34751 31.8
      vertex 3.11623 6.04274 31.8
      vertex 4.11823 4.44698 29.8
    endloop
  endfacet
  facet normal 0.353669 0.932547 -0.0726253
    outer loop
      vertex 9.27226 10.2919 31.8
      vertex 7.46407 10.8219 29.8
      vertex 7.48215 10.9708 31.8
    endloop
  endfacet
  facet normal 0.746534 0.661373 -0.0726128
    outer loop
      vertex 10.5418 8.85889 31.8
      vertex 9.18705 10.1685 29.8
      vertex 9.27226 10.2919 31.8
    endloop
  endfacet
  facet normal -0.883117 0.463498 -0.0726258
    outer loop
      vertex 4.11823 9.55302 29.8
      vertex 3.11623 7.95726 31.8
      vertex 4.00596 9.65249 31.8
    endloop
  endfacet
  facet normal -0.566577 0.8208 -0.0726472
    outer loop
      vertex 5.63477 10.5998 29.8
      vertex 4.00596 9.65249 31.8
      vertex 5.58158 10.7401 31.8
    endloop
  endfacet
  facet normal -0.120209 0.990087 -0.0726515
    outer loop
      vertex 5.63477 10.5998 29.8
      vertex 5.58158 10.7401 31.8
      vertex 7.46407 10.8219 29.8
    endloop
  endfacet
  facet normal 0.968377 -0.238687 -0.0726283
    outer loop
      vertex 11 7 31.8
      vertex 10.409 5.21082 29.8
      vertex 10.85 7 29.8
    endloop
  endfacet
  facet normal -0.566564 -0.820811 -0.0726271
    outer loop
      vertex 5.63477 3.40019 29.8
      vertex 4.00596 4.34751 31.8
      vertex 4.11823 4.44698 29.8
    endloop
  endfacet
  facet normal 0.968375 -0.238696 -0.0726199
    outer loop
      vertex 10.5418 5.14111 31.8
      vertex 10.409 5.21082 29.8
      vertex 11 7 31.8
    endloop
  endfacet
  facet normal 0.746538 -0.661368 -0.0726221
    outer loop
      vertex 10.5418 5.14111 31.8
      vertex 9.18705 3.83151 29.8
      vertex 10.409 5.21082 29.8
    endloop
  endfacet
  facet normal -0.883118 0.463495 -0.0726284
    outer loop
      vertex 3.26187 7.92136 29.8
      vertex 3.11623 7.95726 31.8
      vertex 4.11823 9.55302 29.8
    endloop
  endfacet
  facet normal -0.88547 0.464697 0
    outer loop
      vertex 64.2619 7.92136 27
      vertex 65.1182 9.55302 29.8
      vertex 65.1182 9.55302 27
    endloop
  endfacet
  facet normal -0.88547 0.464697 0
    outer loop
      vertex 65.1182 9.55302 29.8
      vertex 64.2619 7.92136 27
      vertex 64.2619 7.92136 29.8
    endloop
  endfacet
  facet normal -0.88547 0.464697 0
    outer loop
      vertex 64.2619 7.92136 33.8
      vertex 65.1182 9.55302 33.9
      vertex 65.1182 9.55302 33.8
    endloop
  endfacet
  facet normal -0.88547 0.464697 0
    outer loop
      vertex 65.1182 9.55302 33.9
      vertex 64.2619 7.92136 33.8
      vertex 64.2619 7.92136 33.9
    endloop
  endfacet
  facet normal 0.748503 0.663132 0
    outer loop
      vertex 71.409 8.78918 29.8
      vertex 70.187 10.1685 27
      vertex 70.187 10.1685 29.8
    endloop
  endfacet
  facet normal 0.748503 0.663132 0
    outer loop
      vertex 70.187 10.1685 27
      vertex 71.409 8.78918 29.8
      vertex 71.409 8.78918 27
    endloop
  endfacet
  facet normal 0.748503 0.663132 0
    outer loop
      vertex 71.409 8.78918 33.9
      vertex 70.187 10.1685 33.8
      vertex 70.187 10.1685 33.9
    endloop
  endfacet
  facet normal 0.748503 0.663132 0
    outer loop
      vertex 70.187 10.1685 33.8
      vertex 71.409 8.78918 33.9
      vertex 71.409 8.78918 33.8
    endloop
  endfacet
  facet normal 0.970941 0.239319 0
    outer loop
      vertex 71.85 7 29.8
      vertex 71.409 8.78918 27
      vertex 71.409 8.78918 29.8
    endloop
  endfacet
  facet normal 0.970941 0.239319 0
    outer loop
      vertex 71.409 8.78918 27
      vertex 71.85 7 29.8
      vertex 71.85 7 27
    endloop
  endfacet
  facet normal 0.970941 0.239319 0
    outer loop
      vertex 71.85 7 33.9
      vertex 71.409 8.78918 33.8
      vertex 71.409 8.78918 33.9
    endloop
  endfacet
  facet normal 0.970941 0.239319 0
    outer loop
      vertex 71.409 8.78918 33.8
      vertex 71.85 7 33.9
      vertex 71.85 7 33.8
    endloop
  endfacet
  facet normal -0.885469 -0.464699 0
    outer loop
      vertex 65.1182 4.44698 27
      vertex 64.2619 6.07863 29.8
      vertex 64.2619 6.07863 27
    endloop
  endfacet
  facet normal -0.885469 -0.464699 0
    outer loop
      vertex 64.2619 6.07863 29.8
      vertex 65.1182 4.44698 27
      vertex 65.1182 4.44698 29.8
    endloop
  endfacet
  facet normal -0.885469 -0.464699 0
    outer loop
      vertex 65.1182 4.44698 33.8
      vertex 64.2619 6.07863 33.9
      vertex 64.2619 6.07863 33.8
    endloop
  endfacet
  facet normal -0.885469 -0.464699 0
    outer loop
      vertex 64.2619 6.07863 33.9
      vertex 65.1182 4.44698 33.8
      vertex 65.1182 4.44698 33.9
    endloop
  endfacet
  facet normal 0.354619 -0.935011 0
    outer loop
      vertex 68.4641 3.17807 27
      vertex 70.187 3.83151 29.8
      vertex 68.4641 3.17807 29.8
    endloop
  endfacet
  facet normal 0.354619 -0.935011 0
    outer loop
      vertex 70.187 3.83151 29.8
      vertex 68.4641 3.17807 27
      vertex 70.187 3.83151 27
    endloop
  endfacet
  facet normal 0.354619 -0.935011 0
    outer loop
      vertex 68.4641 3.17807 33.8
      vertex 70.187 3.83151 33.9
      vertex 68.4641 3.17807 33.9
    endloop
  endfacet
  facet normal 0.354619 -0.935011 0
    outer loop
      vertex 70.187 3.83151 33.9
      vertex 68.4641 3.17807 33.8
      vertex 70.187 3.83151 33.8
    endloop
  endfacet
  facet normal -0.568049 -0.822995 0
    outer loop
      vertex 65.1182 4.44698 27
      vertex 66.6348 3.40019 29.8
      vertex 65.1182 4.44698 29.8
    endloop
  endfacet
  facet normal -0.568049 -0.822995 -0
    outer loop
      vertex 66.6348 3.40019 29.8
      vertex 65.1182 4.44698 27
      vertex 66.6348 3.40019 27
    endloop
  endfacet
  facet normal -0.568049 -0.822995 0
    outer loop
      vertex 65.1182 4.44698 33.8
      vertex 66.6348 3.40019 33.9
      vertex 65.1182 4.44698 33.9
    endloop
  endfacet
  facet normal -0.568049 -0.822995 -0
    outer loop
      vertex 66.6348 3.40019 33.9
      vertex 65.1182 4.44698 33.8
      vertex 66.6348 3.40019 33.8
    endloop
  endfacet
  facet normal 0 0 1
    outer loop
      vertex 71.409 8.78918 33.9
      vertex 71.409 5.21082 33.9
      vertex 71.85 7 33.9
    endloop
  endfacet
  facet normal 0 0 1
    outer loop
      vertex 70.187 10.1685 33.9
      vertex 71.409 5.21082 33.9
      vertex 71.409 8.78918 33.9
    endloop
  endfacet
  facet normal 0 0 1
    outer loop
      vertex 70.187 10.1685 33.9
      vertex 70.187 3.83151 33.9
      vertex 71.409 5.21082 33.9
    endloop
  endfacet
  facet normal 0 0 1
    outer loop
      vertex 68.4641 10.8219 33.9
      vertex 70.187 3.83151 33.9
      vertex 70.187 10.1685 33.9
    endloop
  endfacet
  facet normal 0 0 1
    outer loop
      vertex 68.4641 10.8219 33.9
      vertex 68.4641 3.17807 33.9
      vertex 70.187 3.83151 33.9
    endloop
  endfacet
  facet normal -0 0 1
    outer loop
      vertex 66.6348 10.5998 33.9
      vertex 68.4641 3.17807 33.9
      vertex 68.4641 10.8219 33.9
    endloop
  endfacet
  facet normal 0 0 1
    outer loop
      vertex 66.6348 10.5998 33.9
      vertex 66.6348 3.40019 33.9
      vertex 68.4641 3.17807 33.9
    endloop
  endfacet
  facet normal -0 0 1
    outer loop
      vertex 65.1182 9.55302 33.9
      vertex 66.6348 3.40019 33.9
      vertex 66.6348 10.5998 33.9
    endloop
  endfacet
  facet normal 0 0 1
    outer loop
      vertex 65.1182 9.55302 33.9
      vertex 65.1182 4.44698 33.9
      vertex 66.6348 3.40019 33.9
    endloop
  endfacet
  facet normal -0 0 1
    outer loop
      vertex 64.2619 7.92136 33.9
      vertex 65.1182 4.44698 33.9
      vertex 65.1182 9.55302 33.9
    endloop
  endfacet
  facet normal 0 0 1
    outer loop
      vertex 65.1182 4.44698 33.9
      vertex 64.2619 7.92136 33.9
      vertex 64.2619 6.07863 33.9
    endloop
  endfacet
  facet normal 0.3546 0.935018 -0
    outer loop
      vertex 70.187 10.1685 27
      vertex 68.4641 10.8219 29.8
      vertex 70.187 10.1685 29.8
    endloop
  endfacet
  facet normal 0.3546 0.935018 0
    outer loop
      vertex 68.4641 10.8219 29.8
      vertex 70.187 10.1685 27
      vertex 68.4641 10.8219 27
    endloop
  endfacet
  facet normal 0.3546 0.935018 -0
    outer loop
      vertex 70.187 10.1685 33.8
      vertex 68.4641 10.8219 33.9
      vertex 70.187 10.1685 33.9
    endloop
  endfacet
  facet normal 0.3546 0.935018 0
    outer loop
      vertex 68.4641 10.8219 33.9
      vertex 70.187 10.1685 33.8
      vertex 68.4641 10.8219 33.8
    endloop
  endfacet
  facet normal -0.120527 0.99271 0
    outer loop
      vertex 68.4641 10.8219 27
      vertex 66.6348 10.5998 29.8
      vertex 68.4641 10.8219 29.8
    endloop
  endfacet
  facet normal -0.120527 0.99271 0
    outer loop
      vertex 66.6348 10.5998 29.8
      vertex 68.4641 10.8219 27
      vertex 66.6348 10.5998 27
    endloop
  endfacet
  facet normal -0.120527 0.99271 0
    outer loop
      vertex 68.4641 10.8219 33.8
      vertex 66.6348 10.5998 33.9
      vertex 68.4641 10.8219 33.9
    endloop
  endfacet
  facet normal -0.120527 0.99271 0
    outer loop
      vertex 66.6348 10.5998 33.9
      vertex 68.4641 10.8219 33.8
      vertex 66.6348 10.5998 33.8
    endloop
  endfacet
  facet normal -1 0 0
    outer loop
      vertex 64.2619 6.07863 27
      vertex 64.2619 7.92136 29.8
      vertex 64.2619 7.92136 27
    endloop
  endfacet
  facet normal -1 -0 0
    outer loop
      vertex 64.2619 7.92136 29.8
      vertex 64.2619 6.07863 27
      vertex 64.2619 6.07863 29.8
    endloop
  endfacet
  facet normal -1 0 0
    outer loop
      vertex 64.2619 6.07863 33.8
      vertex 64.2619 7.92136 33.9
      vertex 64.2619 7.92136 33.8
    endloop
  endfacet
  facet normal -1 -0 0
    outer loop
      vertex 64.2619 7.92136 33.9
      vertex 64.2619 6.07863 33.8
      vertex 64.2619 6.07863 33.9
    endloop
  endfacet
  facet normal -0.568045 0.822997 0
    outer loop
      vertex 66.6348 10.5998 27
      vertex 65.1182 9.55302 29.8
      vertex 66.6348 10.5998 29.8
    endloop
  endfacet
  facet normal -0.568045 0.822997 0
    outer loop
      vertex 65.1182 9.55302 29.8
      vertex 66.6348 10.5998 27
      vertex 65.1182 9.55302 27
    endloop
  endfacet
  facet normal -0.568045 0.822997 0
    outer loop
      vertex 66.6348 10.5998 33.8
      vertex 65.1182 9.55302 33.9
      vertex 66.6348 10.5998 33.9
    endloop
  endfacet
  facet normal -0.568045 0.822997 0
    outer loop
      vertex 65.1182 9.55302 33.9
      vertex 66.6348 10.5998 33.8
      vertex 65.1182 9.55302 33.8
    endloop
  endfacet
  facet normal 0.970941 -0.239319 0
    outer loop
      vertex 71.409 5.21082 29.8
      vertex 71.85 7 27
      vertex 71.85 7 29.8
    endloop
  endfacet
  facet normal 0.970941 -0.239319 0
    outer loop
      vertex 71.85 7 27
      vertex 71.409 5.21082 29.8
      vertex 71.409 5.21082 27
    endloop
  endfacet
  facet normal 0.970941 -0.239319 0
    outer loop
      vertex 71.409 5.21082 33.9
      vertex 71.85 7 33.8
      vertex 71.85 7 33.9
    endloop
  endfacet
  facet normal 0.970941 -0.239319 0
    outer loop
      vertex 71.85 7 33.8
      vertex 71.409 5.21082 33.9
      vertex 71.409 5.21082 33.8
    endloop
  endfacet
  facet normal 0.748501 -0.663134 0
    outer loop
      vertex 70.187 3.83151 29.8
      vertex 71.409 5.21082 27
      vertex 71.409 5.21082 29.8
    endloop
  endfacet
  facet normal 0.748501 -0.663134 0
    outer loop
      vertex 71.409 5.21082 27
      vertex 70.187 3.83151 29.8
      vertex 70.187 3.83151 27
    endloop
  endfacet
  facet normal 0.748501 -0.663134 0
    outer loop
      vertex 70.187 3.83151 33.9
      vertex 71.409 5.21082 33.8
      vertex 71.409 5.21082 33.9
    endloop
  endfacet
  facet normal 0.748501 -0.663134 0
    outer loop
      vertex 71.409 5.21082 33.8
      vertex 70.187 3.83151 33.9
      vertex 70.187 3.83151 33.8
    endloop
  endfacet
  facet normal -0.120538 -0.992709 0
    outer loop
      vertex 66.6348 3.40019 27
      vertex 68.4641 3.17807 29.8
      vertex 66.6348 3.40019 29.8
    endloop
  endfacet
  facet normal -0.120538 -0.992709 -0
    outer loop
      vertex 68.4641 3.17807 29.8
      vertex 66.6348 3.40019 27
      vertex 68.4641 3.17807 27
    endloop
  endfacet
  facet normal -0.120538 -0.992709 0
    outer loop
      vertex 66.6348 3.40019 33.8
      vertex 68.4641 3.17807 33.9
      vertex 66.6348 3.40019 33.9
    endloop
  endfacet
  facet normal -0.120538 -0.992709 -0
    outer loop
      vertex 68.4641 3.17807 33.9
      vertex 66.6348 3.40019 33.8
      vertex 68.4641 3.17807 33.8
    endloop
  endfacet
  facet normal -0.120209 0.990087 0.0726521
    outer loop
      vertex 68.4641 10.8219 33.8
      vertex 66.5816 10.7401 31.8
      vertex 66.6348 10.5998 33.8
    endloop
  endfacet
  facet normal -0.566582 0.820797 0.07265
    outer loop
      vertex 66.5816 10.7401 31.8
      vertex 65.006 9.65249 31.8
      vertex 66.6348 10.5998 33.8
    endloop
  endfacet
  facet normal -0.566572 -0.820805 0.0726339
    outer loop
      vertex 66.6348 3.40019 33.8
      vertex 65.006 4.34751 31.8
      vertex 66.5816 3.25993 31.8
    endloop
  endfacet
  facet normal -0.88313 0.463469 0.0726553
    outer loop
      vertex 65.1182 9.55302 33.8
      vertex 64.1162 7.95726 31.8
      vertex 64.2619 7.92136 33.8
    endloop
  endfacet
  facet normal 0.968377 0.238687 0.0726283
    outer loop
      vertex 72 7 31.8
      vertex 71.409 8.78918 33.8
      vertex 71.85 7 33.8
    endloop
  endfacet
  facet normal 0.968375 0.238696 0.0726199
    outer loop
      vertex 71.5418 8.85889 31.8
      vertex 71.409 8.78918 33.8
      vertex 72 7 31.8
    endloop
  endfacet
  facet normal 0.746542 0.66136 0.0726459
    outer loop
      vertex 70.2723 10.2919 31.8
      vertex 70.187 10.1685 33.8
      vertex 71.5418 8.85889 31.8
    endloop
  endfacet
  facet normal -0.883104 0.463527 0.0725957
    outer loop
      vertex 65.006 9.65249 31.8
      vertex 64.1162 7.95726 31.8
      vertex 65.1182 9.55302 33.8
    endloop
  endfacet
  facet normal -0.120222 -0.990086 0.0726349
    outer loop
      vertex 68.4641 3.17807 33.8
      vertex 66.5816 3.25993 31.8
      vertex 68.4821 3.02916 31.8
    endloop
  endfacet
  facet normal 0.746551 -0.661349 0.0726621
    outer loop
      vertex 71.5418 5.14111 31.8
      vertex 70.187 3.83151 33.8
      vertex 70.2723 3.70806 31.8
    endloop
  endfacet
  facet normal -0.883104 -0.463527 0.0725957
    outer loop
      vertex 65.1182 4.44698 33.8
      vertex 64.1162 6.04274 31.8
      vertex 65.006 4.34751 31.8
    endloop
  endfacet
  facet normal -0.12022 -0.990087 0.0726326
    outer loop
      vertex 66.6348 3.40019 33.8
      vertex 66.5816 3.25993 31.8
      vertex 68.4641 3.17807 33.8
    endloop
  endfacet
  facet normal 0.353682 -0.93254 0.0726456
    outer loop
      vertex 70.187 3.83151 33.8
      vertex 68.4641 3.17807 33.8
      vertex 70.2723 3.70806 31.8
    endloop
  endfacet
  facet normal 0.353654 -0.932554 0.0726162
    outer loop
      vertex 70.2723 3.70806 31.8
      vertex 68.4641 3.17807 33.8
      vertex 68.4821 3.02916 31.8
    endloop
  endfacet
  facet normal 0.353654 0.932554 0.0726115
    outer loop
      vertex 68.4821 10.9708 31.8
      vertex 68.4641 10.8219 33.8
      vertex 70.2723 10.2919 31.8
    endloop
  endfacet
  facet normal -0.883128 -0.463471 0.0726529
    outer loop
      vertex 64.2619 6.07863 33.8
      vertex 64.1162 6.04274 31.8
      vertex 65.1182 4.44698 33.8
    endloop
  endfacet
  facet normal 0.746527 0.661381 0.0726218
    outer loop
      vertex 71.5418 8.85889 31.8
      vertex 70.187 10.1685 33.8
      vertex 71.409 8.78918 33.8
    endloop
  endfacet
  facet normal 0.353664 0.932549 0.072622
    outer loop
      vertex 70.2723 10.2919 31.8
      vertex 68.4641 10.8219 33.8
      vertex 70.187 10.1685 33.8
    endloop
  endfacet
  facet normal -0.120186 0.990091 0.0726306
    outer loop
      vertex 68.4821 10.9708 31.8
      vertex 66.5816 10.7401 31.8
      vertex 68.4641 10.8219 33.8
    endloop
  endfacet
  facet normal 0.968375 -0.238696 0.0726199
    outer loop
      vertex 72 7 31.8
      vertex 71.409 5.21082 33.8
      vertex 71.5418 5.14111 31.8
    endloop
  endfacet
  facet normal 0.968377 -0.238687 0.0726283
    outer loop
      vertex 71.85 7 33.8
      vertex 71.409 5.21082 33.8
      vertex 72 7 31.8
    endloop
  endfacet
  facet normal -0.997357 0 0.0726575
    outer loop
      vertex 64.1162 7.95726 31.8
      vertex 64.2619 6.07863 33.8
      vertex 64.2619 7.92136 33.8
    endloop
  endfacet
  facet normal -0.997357 0 0.0726575
    outer loop
      vertex 64.2619 6.07863 33.8
      vertex 64.1162 7.95726 31.8
      vertex 64.1162 6.04274 31.8
    endloop
  endfacet
  facet normal -0.56655 -0.820823 0.072607
    outer loop
      vertex 65.1182 4.44698 33.8
      vertex 65.006 4.34751 31.8
      vertex 66.6348 3.40019 33.8
    endloop
  endfacet
  facet normal -0.566546 0.820825 0.072607
    outer loop
      vertex 66.6348 10.5998 33.8
      vertex 65.006 9.65249 31.8
      vertex 65.1182 9.55302 33.8
    endloop
  endfacet
  facet normal 0.746524 -0.661383 0.0726217
    outer loop
      vertex 71.409 5.21082 33.8
      vertex 70.187 3.83151 33.8
      vertex 71.5418 5.14111 31.8
    endloop
  endfacet
  facet normal 0.968377 0.238687 -0.0726283
    outer loop
      vertex 71.85 7 29.8
      vertex 71.409 8.78918 29.8
      vertex 72 7 31.8
    endloop
  endfacet
  facet normal -0.56655 -0.820823 -0.072607
    outer loop
      vertex 66.6348 3.40019 29.8
      vertex 65.006 4.34751 31.8
      vertex 65.1182 4.44698 29.8
    endloop
  endfacet
  facet normal 0.353682 -0.93254 -0.0726456
    outer loop
      vertex 70.2723 3.70806 31.8
      vertex 68.4641 3.17807 29.8
      vertex 70.187 3.83151 29.8
    endloop
  endfacet
  facet normal -0.566582 0.820797 -0.07265
    outer loop
      vertex 66.6348 10.5998 29.8
      vertex 65.006 9.65249 31.8
      vertex 66.5816 10.7401 31.8
    endloop
  endfacet
  facet normal -0.883104 0.463527 -0.0725957
    outer loop
      vertex 65.1182 9.55302 29.8
      vertex 64.1162 7.95726 31.8
      vertex 65.006 9.65249 31.8
    endloop
  endfacet
  facet normal -0.566546 0.820825 -0.072607
    outer loop
      vertex 65.1182 9.55302 29.8
      vertex 65.006 9.65249 31.8
      vertex 66.6348 10.5998 29.8
    endloop
  endfacet
  facet normal -0.120222 -0.990086 -0.0726349
    outer loop
      vertex 68.4821 3.02916 31.8
      vertex 66.5816 3.25993 31.8
      vertex 68.4641 3.17807 29.8
    endloop
  endfacet
  facet normal 0.746524 -0.661383 -0.0726217
    outer loop
      vertex 71.5418 5.14111 31.8
      vertex 70.187 3.83151 29.8
      vertex 71.409 5.21082 29.8
    endloop
  endfacet
  facet normal 0.353664 0.932549 -0.072622
    outer loop
      vertex 70.187 10.1685 29.8
      vertex 68.4641 10.8219 29.8
      vertex 70.2723 10.2919 31.8
    endloop
  endfacet
  facet normal 0.746551 -0.661349 -0.0726621
    outer loop
      vertex 70.2723 3.70806 31.8
      vertex 70.187 3.83151 29.8
      vertex 71.5418 5.14111 31.8
    endloop
  endfacet
  facet normal -0.120186 0.990091 -0.0726306
    outer loop
      vertex 68.4641 10.8219 29.8
      vertex 66.5816 10.7401 31.8
      vertex 68.4821 10.9708 31.8
    endloop
  endfacet
  facet normal 0.353654 0.932554 -0.0726115
    outer loop
      vertex 70.2723 10.2919 31.8
      vertex 68.4641 10.8219 29.8
      vertex 68.4821 10.9708 31.8
    endloop
  endfacet
  facet normal -0.12022 -0.990087 -0.0726326
    outer loop
      vertex 68.4641 3.17807 29.8
      vertex 66.5816 3.25993 31.8
      vertex 66.6348 3.40019 29.8
    endloop
  endfacet
  facet normal 0.968375 0.238696 -0.0726199
    outer loop
      vertex 72 7 31.8
      vertex 71.409 8.78918 29.8
      vertex 71.5418 8.85889 31.8
    endloop
  endfacet
  facet normal 0.968375 -0.238696 -0.0726199
    outer loop
      vertex 71.5418 5.14111 31.8
      vertex 71.409 5.21082 29.8
      vertex 72 7 31.8
    endloop
  endfacet
  facet normal -0.997357 0 -0.0726575
    outer loop
      vertex 64.2619 6.07863 29.8
      vertex 64.1162 7.95726 31.8
      vertex 64.2619 7.92136 29.8
    endloop
  endfacet
  facet normal -0.997357 -0 -0.0726575
    outer loop
      vertex 64.1162 7.95726 31.8
      vertex 64.2619 6.07863 29.8
      vertex 64.1162 6.04274 31.8
    endloop
  endfacet
  facet normal 0.353654 -0.932554 -0.0726162
    outer loop
      vertex 68.4821 3.02916 31.8
      vertex 68.4641 3.17807 29.8
      vertex 70.2723 3.70806 31.8
    endloop
  endfacet
  facet normal -0.88313 0.463469 -0.0726553
    outer loop
      vertex 64.2619 7.92136 29.8
      vertex 64.1162 7.95726 31.8
      vertex 65.1182 9.55302 29.8
    endloop
  endfacet
  facet normal -0.566572 -0.820805 -0.0726339
    outer loop
      vertex 66.5816 3.25993 31.8
      vertex 65.006 4.34751 31.8
      vertex 66.6348 3.40019 29.8
    endloop
  endfacet
  facet normal -0.120209 0.990087 -0.0726521
    outer loop
      vertex 66.6348 10.5998 29.8
      vertex 66.5816 10.7401 31.8
      vertex 68.4641 10.8219 29.8
    endloop
  endfacet
  facet normal 0.968377 -0.238687 -0.0726283
    outer loop
      vertex 72 7 31.8
      vertex 71.409 5.21082 29.8
      vertex 71.85 7 29.8
    endloop
  endfacet
  facet normal 0.746542 0.66136 -0.0726459
    outer loop
      vertex 71.5418 8.85889 31.8
      vertex 70.187 10.1685 29.8
      vertex 70.2723 10.2919 31.8
    endloop
  endfacet
  facet normal 0.746527 0.661381 -0.0726218
    outer loop
      vertex 71.409 8.78918 29.8
      vertex 70.187 10.1685 29.8
      vertex 71.5418 8.85889 31.8
    endloop
  endfacet
  facet normal -0.883104 -0.463527 -0.0725957
    outer loop
      vertex 65.006 4.34751 31.8
      vertex 64.1162 6.04274 31.8
      vertex 65.1182 4.44698 29.8
    endloop
  endfacet
  facet normal -0.883128 -0.463471 -0.0726529
    outer loop
      vertex 65.1182 4.44698 29.8
      vertex 64.1162 6.04274 31.8
      vertex 64.2619 6.07863 29.8
    endloop
  endfacet
  facet normal -1 0 0
    outer loop
      vertex 60 1 18
      vertex 60 13 27
      vertex 60 13 18
    endloop
  endfacet
  facet normal -1 -0 0
    outer loop
      vertex 60 13 27
      vertex 60 1 18
      vertex 60 1 27
    endloop
  endfacet
  facet normal 0 0 1
    outer loop
      vertex 55 13 3.1
      vertex 27.5 7 3.1
      vertex 55 1 3.1
    endloop
  endfacet
  facet normal 0 0 1
    outer loop
      vertex 55 13 3.1
      vertex 27.3776 7.77254 3.1
      vertex 27.5 7 3.1
    endloop
  endfacet
  facet normal 0 0 1
    outer loop
      vertex 55 13 3.1
      vertex 27.0225 8.46946 3.1
      vertex 27.3776 7.77254 3.1
    endloop
  endfacet
  facet normal 0 0 1
    outer loop
      vertex 55 13 3.1
      vertex 26.4695 9.02254 3.1
      vertex 27.0225 8.46946 3.1
    endloop
  endfacet
  facet normal 0 0 1
    outer loop
      vertex 55 13 3.1
      vertex 25.7725 9.37764 3.1
      vertex 26.4695 9.02254 3.1
    endloop
  endfacet
  facet normal -0 0 1
    outer loop
      vertex 20 13 3.1
      vertex 25.7725 9.37764 3.1
      vertex 55 13 3.1
    endloop
  endfacet
  facet normal 0 0 1
    outer loop
      vertex 22.6224 7.77254 3.1
      vertex 20 13 3.1
      vertex 22.5 7 3.1
    endloop
  endfacet
  facet normal 0 0 1
    outer loop
      vertex 22.9775 8.46946 3.1
      vertex 20 13 3.1
      vertex 22.6224 7.77254 3.1
    endloop
  endfacet
  facet normal 0 0 1
    outer loop
      vertex 23.5305 9.02254 3.1
      vertex 20 13 3.1
      vertex 22.9775 8.46946 3.1
    endloop
  endfacet
  facet normal 0 0 1
    outer loop
      vertex 24.2275 9.37764 3.1
      vertex 20 13 3.1
      vertex 23.5305 9.02254 3.1
    endloop
  endfacet
  facet normal 0 0 1
    outer loop
      vertex 25 9.5 3.1
      vertex 20 13 3.1
      vertex 24.2275 9.37764 3.1
    endloop
  endfacet
  facet normal 0 0 1
    outer loop
      vertex 25.7725 9.37764 3.1
      vertex 20 13 3.1
      vertex 25 9.5 3.1
    endloop
  endfacet
  facet normal -0 0 1
    outer loop
      vertex 27.3776 6.22746 3.1
      vertex 55 1 3.1
      vertex 27.5 7 3.1
    endloop
  endfacet
  facet normal -0 0 1
    outer loop
      vertex 27.0225 5.53054 3.1
      vertex 55 1 3.1
      vertex 27.3776 6.22746 3.1
    endloop
  endfacet
  facet normal -0 0 1
    outer loop
      vertex 26.4695 4.97746 3.1
      vertex 55 1 3.1
      vertex 27.0225 5.53054 3.1
    endloop
  endfacet
  facet normal -0 0 1
    outer loop
      vertex 25.7725 4.62236 3.1
      vertex 55 1 3.1
      vertex 26.4695 4.97746 3.1
    endloop
  endfacet
  facet normal 0 0 1
    outer loop
      vertex 20 1 3.1
      vertex 25.7725 4.62236 3.1
      vertex 25 4.5 3.1
    endloop
  endfacet
  facet normal 0 0 1
    outer loop
      vertex 20 1 3.1
      vertex 22.5 7 3.1
      vertex 20 13 3.1
    endloop
  endfacet
  facet normal 0 0 1
    outer loop
      vertex 25.7725 4.62236 3.1
      vertex 20 1 3.1
      vertex 55 1 3.1
    endloop
  endfacet
  facet normal 0 0 1
    outer loop
      vertex 24.2275 4.62236 3.1
      vertex 20 1 3.1
      vertex 25 4.5 3.1
    endloop
  endfacet
  facet normal 0 0 1
    outer loop
      vertex 23.5305 4.97746 3.1
      vertex 20 1 3.1
      vertex 24.2275 4.62236 3.1
    endloop
  endfacet
  facet normal 0 0 1
    outer loop
      vertex 22.9775 5.53054 3.1
      vertex 20 1 3.1
      vertex 23.5305 4.97746 3.1
    endloop
  endfacet
  facet normal 0 0 1
    outer loop
      vertex 22.6224 6.22746 3.1
      vertex 20 1 3.1
      vertex 22.9775 5.53054 3.1
    endloop
  endfacet
  facet normal 0 0 1
    outer loop
      vertex 22.5 7 3.1
      vertex 20 1 3.1
      vertex 22.6224 6.22746 3.1
    endloop
  endfacet
  facet normal 1 -0 0
    outer loop
      vertex 15 1 27
      vertex 15 13 18
      vertex 15 13 27
    endloop
  endfacet
  facet normal 1 0 0
    outer loop
      vertex 15 13 18
      vertex 15 1 27
      vertex 15 1 18
    endloop
  endfacet
  facet normal 0 -1 0
    outer loop
      vertex 16.9124 13 3
      vertex 15 13 18
      vertex 2.92464 13 18
    endloop
  endfacet
  facet normal 0 -1 0
    outer loop
      vertex 15 13 18
      vertex 20 13 3.1
      vertex 60 13 18
    endloop
  endfacet
  facet normal 0 -1 0
    outer loop
      vertex 60 13 18
      vertex 20 13 3.1
      vertex 55 13 3.1
    endloop
  endfacet
  facet normal 0 -1 0
    outer loop
      vertex 15 13 18
      vertex 16.9124 13 3
      vertex 20 13 3.1
    endloop
  endfacet
  facet normal 0 -1 -0
    outer loop
      vertex 20 13 3.1
      vertex 16.9124 13 3
      vertex 20 13 3
    endloop
  endfacet
  facet normal 0 -1 0
    outer loop
      vertex 15 13 18
      vertex 60 13 27
      vertex 15 13 27
    endloop
  endfacet
  facet normal 0 -1 -0
    outer loop
      vertex 60 13 27
      vertex 15 13 18
      vertex 60 13 18
    endloop
  endfacet
  facet normal 0 -1 0
    outer loop
      vertex 57.0808 13 3
      vertex 60 13 18
      vertex 55 13 3.1
    endloop
  endfacet
  facet normal 0 -1 0
    outer loop
      vertex 57.0808 13 3
      vertex 55 13 3.1
      vertex 55 13 3
    endloop
  endfacet
  facet normal 0 -1 -0
    outer loop
      vertex 60 13 18
      vertex 57.0808 13 3
      vertex 73.1663 13 18
    endloop
  endfacet
  facet normal 0 1 0
    outer loop
      vertex 57.0808 1 3
      vertex 60 1 18
      vertex 73.1663 1 18
    endloop
  endfacet
  facet normal 0 1 0
    outer loop
      vertex 60 1 18
      vertex 55 1 3.1
      vertex 15 1 18
    endloop
  endfacet
  facet normal 0 1 -0
    outer loop
      vertex 20 1 3.1
      vertex 15 1 18
      vertex 55 1 3.1
    endloop
  endfacet
  facet normal 0 1 0
    outer loop
      vertex 60 1 18
      vertex 57.0808 1 3
      vertex 55 1 3.1
    endloop
  endfacet
  facet normal 0 1 0
    outer loop
      vertex 55 1 3.1
      vertex 57.0808 1 3
      vertex 55 1 3
    endloop
  endfacet
  facet normal 0 1 -0
    outer loop
      vertex 60 1 18
      vertex 15 1 27
      vertex 60 1 27
    endloop
  endfacet
  facet normal 0 1 0
    outer loop
      vertex 15 1 27
      vertex 60 1 18
      vertex 15 1 18
    endloop
  endfacet
  facet normal 0 1 -0
    outer loop
      vertex 16.9124 1 3
      vertex 15 1 18
      vertex 20 1 3.1
    endloop
  endfacet
  facet normal 0 1 0
    outer loop
      vertex 16.9124 1 3
      vertex 20 1 3.1
      vertex 20 1 3
    endloop
  endfacet
  facet normal 0 1 0
    outer loop
      vertex 15 1 18
      vertex 16.9124 1 3
      vertex 2.92464 1 18
    endloop
  endfacet
  facet normal -0.731353 -3.80303e-05 -0.681999
    outer loop
      vertex 2.92464 13 18
      vertex 19.7099 14 0
      vertex 16.9124 13 3
    endloop
  endfacet
  facet normal -0.731359 0 -0.681992
    outer loop
      vertex 19.7099 14 0
      vertex 16.9124 1 3
      vertex 16.9124 13 3
    endloop
  endfacet
  facet normal -0.731353 3.80303e-05 -0.681999
    outer loop
      vertex 16.9124 1 3
      vertex 19.7099 0 0
      vertex 2.92464 1 18
    endloop
  endfacet
  facet normal -0.731359 0 -0.681992
    outer loop
      vertex 19.7099 0 0
      vertex 16.9124 1 3
      vertex 19.7099 14 0
    endloop
  endfacet
  facet normal -0.731354 3.14662e-06 -0.681998
    outer loop
      vertex 19.7099 14 0
      vertex 2.92464 13 18
      vertex 0 14 21.1363
    endloop
  endfacet
  facet normal -0.731355 0 -0.681997
    outer loop
      vertex 2.92464 1 18
      vertex 0 14 21.1363
      vertex 2.92464 13 18
    endloop
  endfacet
  facet normal -0.731355 0 -0.681997
    outer loop
      vertex 2.92464 1 18
      vertex 0 0 21.1363
      vertex 0 14 21.1363
    endloop
  endfacet
  facet normal -0.731354 -3.14662e-06 -0.681998
    outer loop
      vertex 0 0 21.1363
      vertex 2.92464 1 18
      vertex 19.7099 0 0
    endloop
  endfacet
  facet normal 0.681987 0 -0.731364
    outer loop
      vertex 75 0 19.7099
      vertex 73.1663 1 18
      vertex 75 14 19.7099
    endloop
  endfacet
  facet normal 0.681999 4.10813e-05 -0.731353
    outer loop
      vertex 75 0 19.7099
      vertex 57.0808 1 3
      vertex 73.1663 1 18
    endloop
  endfacet
  facet normal 0.681999 0 -0.731353
    outer loop
      vertex 57.0808 1 3
      vertex 53.8637 0 0
      vertex 57.0808 13 3
    endloop
  endfacet
  facet normal 0.681998 6.25289e-06 -0.731354
    outer loop
      vertex 53.8637 0 0
      vertex 57.0808 1 3
      vertex 75 0 19.7099
    endloop
  endfacet
  facet normal 0.681987 0 -0.731364
    outer loop
      vertex 73.1663 13 18
      vertex 75 14 19.7099
      vertex 73.1663 1 18
    endloop
  endfacet
  facet normal 0.681999 -4.10813e-05 -0.731353
    outer loop
      vertex 57.0808 13 3
      vertex 75 14 19.7099
      vertex 73.1663 13 18
    endloop
  endfacet
  facet normal 0.681998 -6.25289e-06 -0.731354
    outer loop
      vertex 57.0808 13 3
      vertex 53.8637 14 0
      vertex 75 14 19.7099
    endloop
  endfacet
  facet normal 0.681999 0 -0.731353
    outer loop
      vertex 53.8637 14 0
      vertex 57.0808 13 3
      vertex 53.8637 0 0
    endloop
  endfacet
  facet normal -1 0 0
    outer loop
      vertex 20 1 3
      vertex 20 13 3.1
      vertex 20 13 3
    endloop
  endfacet
  facet normal -1 -0 0
    outer loop
      vertex 20 13 3.1
      vertex 20 1 3
      vertex 20 1 3.1
    endloop
  endfacet
  facet normal 0 0 -1
    outer loop
      vertex 2.92464 1 18
      vertex 15 13 18
      vertex 15 1 18
    endloop
  endfacet
  facet normal -0 0 -1
    outer loop
      vertex 15 13 18
      vertex 2.92464 1 18
      vertex 2.92464 13 18
    endloop
  endfacet
  facet normal -0 0 1
    outer loop
      vertex 16.9124 13 3
      vertex 20 1 3
      vertex 20 13 3
    endloop
  endfacet
  facet normal 0 0 1
    outer loop
      vertex 20 1 3
      vertex 16.9124 13 3
      vertex 16.9124 1 3
    endloop
  endfacet
  facet normal 0 0 -1
    outer loop
      vertex 60 1 18
      vertex 73.1663 13 18
      vertex 73.1663 1 18
    endloop
  endfacet
  facet normal -0 0 -1
    outer loop
      vertex 73.1663 13 18
      vertex 60 1 18
      vertex 60 13 18
    endloop
  endfacet
  facet normal -0 0 1
    outer loop
      vertex 55 13 3
      vertex 57.0808 1 3
      vertex 57.0808 13 3
    endloop
  endfacet
  facet normal 0 0 1
    outer loop
      vertex 57.0808 1 3
      vertex 55 13 3
      vertex 55 1 3
    endloop
  endfacet
  facet normal 1 -0 0
    outer loop
      vertex 55 1 3.1
      vertex 55 13 3
      vertex 55 13 3.1
    endloop
  endfacet
  facet normal 1 0 0
    outer loop
      vertex 55 13 3
      vertex 55 1 3.1
      vertex 55 1 3
    endloop
  endfacet
  facet normal -0.885585 0.140261 -0.442793
    outer loop
      vertex 21.6713 8.08156 11.9
      vertex 22.5 7 9.9
      vertex 21.5 7 11.9
    endloop
  endfacet
  facet normal -0.885569 0.140308 -0.442811
    outer loop
      vertex 22.6224 7.77254 9.9
      vertex 22.5 7 9.9
      vertex 21.6713 8.08156 11.9
    endloop
  endfacet
  facet normal -0.987689 0.156432 0
    outer loop
      vertex 21.5 7 11.9
      vertex 21.6713 8.08156 12.4
      vertex 21.6713 8.08156 11.9
    endloop
  endfacet
  facet normal -0.987689 0.156432 0
    outer loop
      vertex 21.6713 8.08156 12.4
      vertex 21.5 7 11.9
      vertex 21.5 7 12.4
    endloop
  endfacet
  facet normal -0.141386 0.022393 0.989701
    outer loop
      vertex 25 7 12.9
      vertex 21.6713 8.08156 12.4
      vertex 21.5 7 12.4
    endloop
  endfacet
  facet normal -0.98768 0.156486 0
    outer loop
      vertex 22.5 7 3.1
      vertex 22.6224 7.77254 9.9
      vertex 22.6224 7.77254 3.1
    endloop
  endfacet
  facet normal -0.98768 0.156486 0
    outer loop
      vertex 22.6224 7.77254 9.9
      vertex 22.5 7 3.1
      vertex 22.5 7 9.9
    endloop
  endfacet
  facet normal -0.798904 0.40703 -0.442809
    outer loop
      vertex 22.1684 9.05725 11.9
      vertex 22.6224 7.77254 9.9
      vertex 21.6713 8.08156 11.9
    endloop
  endfacet
  facet normal -0.798885 0.407054 -0.44282
    outer loop
      vertex 22.9775 8.46946 9.9
      vertex 22.6224 7.77254 9.9
      vertex 22.1684 9.05725 11.9
    endloop
  endfacet
  facet normal -0.891021 0.453962 0
    outer loop
      vertex 21.6713 8.08156 11.9
      vertex 22.1684 9.05725 12.4
      vertex 22.1684 9.05725 11.9
    endloop
  endfacet
  facet normal -0.891021 0.453962 0
    outer loop
      vertex 22.1684 9.05725 12.4
      vertex 21.6713 8.08156 11.9
      vertex 21.6713 8.08156 12.4
    endloop
  endfacet
  facet normal -0.127547 0.0649836 0.989701
    outer loop
      vertex 25 7 12.9
      vertex 22.1684 9.05725 12.4
      vertex 21.6713 8.08156 12.4
    endloop
  endfacet
  facet normal -0.891006 0.453992 0
    outer loop
      vertex 22.6224 7.77254 3.1
      vertex 22.9775 8.46946 9.9
      vertex 22.9775 8.46946 3.1
    endloop
  endfacet
  facet normal -0.891006 0.453992 0
    outer loop
      vertex 22.9775 8.46946 9.9
      vertex 22.6224 7.77254 3.1
      vertex 22.6224 7.77254 9.9
    endloop
  endfacet
  facet normal -0.633978 0.634052 -0.442775
    outer loop
      vertex 23.5305 9.02254 9.9
      vertex 22.1684 9.05725 11.9
      vertex 22.9428 9.83156 11.9
    endloop
  endfacet
  facet normal -0.634046 0.633954 -0.442819
    outer loop
      vertex 22.1684 9.05725 11.9
      vertex 23.5305 9.02254 9.9
      vertex 22.9775 8.46946 9.9
    endloop
  endfacet
  facet normal -0.707066 0.707148 0
    outer loop
      vertex 22.1684 9.05725 11.9
      vertex 22.9428 9.83156 12.4
      vertex 22.9428 9.83156 11.9
    endloop
  endfacet
  facet normal -0.707066 0.707148 0
    outer loop
      vertex 22.9428 9.83156 12.4
      vertex 22.1684 9.05725 11.9
      vertex 22.1684 9.05725 12.4
    endloop
  endfacet
  facet normal -0.101215 0.101227 0.989701
    outer loop
      vertex 25 7 12.9
      vertex 22.9428 9.83156 12.4
      vertex 22.1684 9.05725 12.4
    endloop
  endfacet
  facet normal -0.707158 0.707056 0
    outer loop
      vertex 22.9775 8.46946 3.1
      vertex 23.5305 9.02254 9.9
      vertex 23.5305 9.02254 3.1
    endloop
  endfacet
  facet normal -0.707158 0.707056 0
    outer loop
      vertex 23.5305 9.02254 9.9
      vertex 22.9775 8.46946 3.1
      vertex 22.9775 8.46946 9.9
    endloop
  endfacet
  facet normal -0.407092 0.798887 -0.442782
    outer loop
      vertex 23.9184 10.3287 11.9
      vertex 23.5305 9.02254 9.9
      vertex 22.9428 9.83156 11.9
    endloop
  endfacet
  facet normal -0.407019 0.798909 -0.44281
    outer loop
      vertex 23.9184 10.3287 11.9
      vertex 24.2275 9.37764 9.9
      vertex 23.5305 9.02254 9.9
    endloop
  endfacet
  facet normal -0.454025 0.890989 0
    outer loop
      vertex 23.9184 10.3287 11.9
      vertex 22.9428 9.83156 12.4
      vertex 23.9184 10.3287 12.4
    endloop
  endfacet
  facet normal -0.454025 0.890989 0
    outer loop
      vertex 22.9428 9.83156 12.4
      vertex 23.9184 10.3287 11.9
      vertex 22.9428 9.83156 11.9
    endloop
  endfacet
  facet normal -0.0649928 0.127544 0.989701
    outer loop
      vertex 25 7 12.9
      vertex 23.9184 10.3287 12.4
      vertex 22.9428 9.83156 12.4
    endloop
  endfacet
  facet normal -0.453951 0.891027 0
    outer loop
      vertex 24.2275 9.37764 3.1
      vertex 23.5305 9.02254 9.9
      vertex 24.2275 9.37764 9.9
    endloop
  endfacet
  facet normal -0.453951 0.891027 0
    outer loop
      vertex 23.5305 9.02254 9.9
      vertex 24.2275 9.37764 3.1
      vertex 23.5305 9.02254 3.1
    endloop
  endfacet
  facet normal -0.140256 0.885584 -0.442798
    outer loop
      vertex 25 10.5 11.9
      vertex 24.2275 9.37764 9.9
      vertex 23.9184 10.3287 11.9
    endloop
  endfacet
  facet normal -0.140272 0.885584 -0.442792
    outer loop
      vertex 25 10.5 11.9
      vertex 25 9.5 9.9
      vertex 24.2275 9.37764 9.9
    endloop
  endfacet
  facet normal -0.156427 0.98769 0
    outer loop
      vertex 25 10.5 11.9
      vertex 23.9184 10.3287 12.4
      vertex 25 10.5 12.4
    endloop
  endfacet
  facet normal -0.156427 0.98769 0
    outer loop
      vertex 23.9184 10.3287 12.4
      vertex 25 10.5 11.9
      vertex 23.9184 10.3287 11.9
    endloop
  endfacet
  facet normal -0.0223922 0.141386 0.989701
    outer loop
      vertex 25 7 12.9
      vertex 25 10.5 12.4
      vertex 23.9184 10.3287 12.4
    endloop
  endfacet
  facet normal -0.156444 0.987687 0
    outer loop
      vertex 25 9.5 3.1
      vertex 24.2275 9.37764 9.9
      vertex 25 9.5 9.9
    endloop
  endfacet
  facet normal -0.156444 0.987687 0
    outer loop
      vertex 24.2275 9.37764 9.9
      vertex 25 9.5 3.1
      vertex 24.2275 9.37764 3.1
    endloop
  endfacet
  facet normal 0.140256 0.885586 -0.442793
    outer loop
      vertex 25 10.5 11.9
      vertex 26.0816 10.3287 11.9
      vertex 25 9.5 9.9
    endloop
  endfacet
  facet normal 0.140271 0.885581 -0.442799
    outer loop
      vertex 26.0816 10.3287 11.9
      vertex 25.7725 9.37764 9.9
      vertex 25 9.5 9.9
    endloop
  endfacet
  facet normal 0.156427 0.98769 -0
    outer loop
      vertex 26.0816 10.3287 11.9
      vertex 25 10.5 12.4
      vertex 26.0816 10.3287 12.4
    endloop
  endfacet
  facet normal 0.156427 0.98769 0
    outer loop
      vertex 25 10.5 12.4
      vertex 26.0816 10.3287 11.9
      vertex 25 10.5 11.9
    endloop
  endfacet
  facet normal 0.0223922 0.141386 0.989701
    outer loop
      vertex 26.0816 10.3287 12.4
      vertex 25 10.5 12.4
      vertex 25 7 12.9
    endloop
  endfacet
  facet normal 0.156444 0.987687 -0
    outer loop
      vertex 25.7725 9.37764 3.1
      vertex 25 9.5 9.9
      vertex 25.7725 9.37764 9.9
    endloop
  endfacet
  facet normal 0.156444 0.987687 0
    outer loop
      vertex 25 9.5 9.9
      vertex 25.7725 9.37764 3.1
      vertex 25 9.5 3.1
    endloop
  endfacet
  facet normal 0.407087 0.798877 -0.442805
    outer loop
      vertex 26.0816 10.3287 11.9
      vertex 27.0572 9.83156 11.9
      vertex 25.7725 9.37764 9.9
    endloop
  endfacet
  facet normal 0.407027 0.798923 -0.442777
    outer loop
      vertex 27.0572 9.83156 11.9
      vertex 26.4695 9.02254 9.9
      vertex 25.7725 9.37764 9.9
    endloop
  endfacet
  facet normal 0.454025 0.890989 -0
    outer loop
      vertex 27.0572 9.83156 11.9
      vertex 26.0816 10.3287 12.4
      vertex 27.0572 9.83156 12.4
    endloop
  endfacet
  facet normal 0.454025 0.890989 0
    outer loop
      vertex 26.0816 10.3287 12.4
      vertex 27.0572 9.83156 11.9
      vertex 26.0816 10.3287 11.9
    endloop
  endfacet
  facet normal 0.0649928 0.127544 0.989701
    outer loop
      vertex 27.0572 9.83156 12.4
      vertex 26.0816 10.3287 12.4
      vertex 25 7 12.9
    endloop
  endfacet
  facet normal 0.453951 0.891027 -0
    outer loop
      vertex 26.4695 9.02254 3.1
      vertex 25.7725 9.37764 9.9
      vertex 26.4695 9.02254 9.9
    endloop
  endfacet
  facet normal 0.453951 0.891027 0
    outer loop
      vertex 25.7725 9.37764 9.9
      vertex 26.4695 9.02254 3.1
      vertex 25.7725 9.37764 3.1
    endloop
  endfacet
  facet normal 0.633978 0.634052 -0.442775
    outer loop
      vertex 27.8316 9.05725 11.9
      vertex 26.4695 9.02254 9.9
      vertex 27.0572 9.83156 11.9
    endloop
  endfacet
  facet normal 0.634046 0.633954 -0.442819
    outer loop
      vertex 26.4695 9.02254 9.9
      vertex 27.8316 9.05725 11.9
      vertex 27.0225 8.46946 9.9
    endloop
  endfacet
  facet normal 0.707066 0.707148 0
    outer loop
      vertex 27.8316 9.05725 12.4
      vertex 27.0572 9.83156 11.9
      vertex 27.0572 9.83156 12.4
    endloop
  endfacet
  facet normal 0.707066 0.707148 0
    outer loop
      vertex 27.0572 9.83156 11.9
      vertex 27.8316 9.05725 12.4
      vertex 27.8316 9.05725 11.9
    endloop
  endfacet
  facet normal 0.101215 0.101227 0.989701
    outer loop
      vertex 27.8316 9.05725 12.4
      vertex 27.0572 9.83156 12.4
      vertex 25 7 12.9
    endloop
  endfacet
  facet normal 0.707158 0.707056 0
    outer loop
      vertex 27.0225 8.46946 9.9
      vertex 26.4695 9.02254 3.1
      vertex 26.4695 9.02254 9.9
    endloop
  endfacet
  facet normal 0.707158 0.707056 0
    outer loop
      vertex 26.4695 9.02254 3.1
      vertex 27.0225 8.46946 9.9
      vertex 27.0225 8.46946 3.1
    endloop
  endfacet
  facet normal 0.798899 0.407028 -0.442818
    outer loop
      vertex 27.8316 9.05725 11.9
      vertex 28.3287 8.08156 11.9
      vertex 27.0225 8.46946 9.9
    endloop
  endfacet
  facet normal 0.798891 0.407057 -0.442807
    outer loop
      vertex 28.3287 8.08156 11.9
      vertex 27.3776 7.77254 9.9
      vertex 27.0225 8.46946 9.9
    endloop
  endfacet
  facet normal 0.891021 0.453962 0
    outer loop
      vertex 28.3287 8.08156 12.4
      vertex 27.8316 9.05725 11.9
      vertex 27.8316 9.05725 12.4
    endloop
  endfacet
  facet normal 0.891021 0.453962 0
    outer loop
      vertex 27.8316 9.05725 11.9
      vertex 28.3287 8.08156 12.4
      vertex 28.3287 8.08156 11.9
    endloop
  endfacet
  facet normal 0.127547 0.0649836 0.989701
    outer loop
      vertex 28.3287 8.08156 12.4
      vertex 27.8316 9.05725 12.4
      vertex 25 7 12.9
    endloop
  endfacet
  facet normal 0.891006 0.453992 0
    outer loop
      vertex 27.3776 7.77254 9.9
      vertex 27.0225 8.46946 3.1
      vertex 27.0225 8.46946 9.9
    endloop
  endfacet
  facet normal 0.891006 0.453992 0
    outer loop
      vertex 27.0225 8.46946 3.1
      vertex 27.3776 7.77254 9.9
      vertex 27.3776 7.77254 3.1
    endloop
  endfacet
  facet normal 0.885578 0.14026 -0.442808
    outer loop
      vertex 28.3287 8.08156 11.9
      vertex 28.5 7 11.9
      vertex 27.3776 7.77254 9.9
    endloop
  endfacet
  facet normal 0.885579 0.14031 -0.44279
    outer loop
      vertex 28.5 7 11.9
      vertex 27.5 7 9.9
      vertex 27.3776 7.77254 9.9
    endloop
  endfacet
  facet normal 0.987689 0.156432 0
    outer loop
      vertex 28.5 7 12.4
      vertex 28.3287 8.08156 11.9
      vertex 28.3287 8.08156 12.4
    endloop
  endfacet
  facet normal 0.987689 0.156432 0
    outer loop
      vertex 28.3287 8.08156 11.9
      vertex 28.5 7 12.4
      vertex 28.5 7 11.9
    endloop
  endfacet
  facet normal 0.141386 0.022393 0.989701
    outer loop
      vertex 28.5 7 12.4
      vertex 28.3287 8.08156 12.4
      vertex 25 7 12.9
    endloop
  endfacet
  facet normal 0.98768 0.156486 0
    outer loop
      vertex 27.5 7 9.9
      vertex 27.3776 7.77254 3.1
      vertex 27.3776 7.77254 9.9
    endloop
  endfacet
  facet normal 0.98768 0.156486 0
    outer loop
      vertex 27.3776 7.77254 3.1
      vertex 27.5 7 9.9
      vertex 27.5 7 3.1
    endloop
  endfacet
  facet normal 0.885585 -0.140261 -0.442793
    outer loop
      vertex 28.5 7 11.9
      vertex 28.3287 5.91844 11.9
      vertex 27.5 7 9.9
    endloop
  endfacet
  facet normal 0.885569 -0.140308 -0.442811
    outer loop
      vertex 27.5 7 9.9
      vertex 28.3287 5.91844 11.9
      vertex 27.3776 6.22746 9.9
    endloop
  endfacet
  facet normal 0.987689 -0.156432 0
    outer loop
      vertex 28.3287 5.91844 12.4
      vertex 28.5 7 11.9
      vertex 28.5 7 12.4
    endloop
  endfacet
  facet normal 0.987689 -0.156432 0
    outer loop
      vertex 28.5 7 11.9
      vertex 28.3287 5.91844 12.4
      vertex 28.3287 5.91844 11.9
    endloop
  endfacet
  facet normal 0.141386 -0.022393 0.989701
    outer loop
      vertex 28.3287 5.91844 12.4
      vertex 28.5 7 12.4
      vertex 25 7 12.9
    endloop
  endfacet
  facet normal 0.98768 -0.156486 0
    outer loop
      vertex 27.3776 6.22746 9.9
      vertex 27.5 7 3.1
      vertex 27.5 7 9.9
    endloop
  endfacet
  facet normal 0.98768 -0.156486 0
    outer loop
      vertex 27.5 7 3.1
      vertex 27.3776 6.22746 9.9
      vertex 27.3776 6.22746 3.1
    endloop
  endfacet
  facet normal 0.798904 -0.40703 -0.442809
    outer loop
      vertex 28.3287 5.91844 11.9
      vertex 27.8316 4.94275 11.9
      vertex 27.3776 6.22746 9.9
    endloop
  endfacet
  facet normal 0.798885 -0.407054 -0.44282
    outer loop
      vertex 27.3776 6.22746 9.9
      vertex 27.8316 4.94275 11.9
      vertex 27.0225 5.53054 9.9
    endloop
  endfacet
  facet normal 0.891021 -0.453962 0
    outer loop
      vertex 27.8316 4.94275 12.4
      vertex 28.3287 5.91844 11.9
      vertex 28.3287 5.91844 12.4
    endloop
  endfacet
  facet normal 0.891021 -0.453962 0
    outer loop
      vertex 28.3287 5.91844 11.9
      vertex 27.8316 4.94275 12.4
      vertex 27.8316 4.94275 11.9
    endloop
  endfacet
  facet normal 0.127547 -0.0649836 0.989701
    outer loop
      vertex 27.8316 4.94275 12.4
      vertex 28.3287 5.91844 12.4
      vertex 25 7 12.9
    endloop
  endfacet
  facet normal 0.891006 -0.453992 0
    outer loop
      vertex 27.0225 5.53054 9.9
      vertex 27.3776 6.22746 3.1
      vertex 27.3776 6.22746 9.9
    endloop
  endfacet
  facet normal 0.891006 -0.453992 0
    outer loop
      vertex 27.3776 6.22746 3.1
      vertex 27.0225 5.53054 9.9
      vertex 27.0225 5.53054 3.1
    endloop
  endfacet
  facet normal 0.634046 -0.633954 -0.442819
    outer loop
      vertex 27.8316 4.94275 11.9
      vertex 26.4695 4.97746 9.9
      vertex 27.0225 5.53054 9.9
    endloop
  endfacet
  facet normal 0.633978 -0.634052 -0.442775
    outer loop
      vertex 26.4695 4.97746 9.9
      vertex 27.8316 4.94275 11.9
      vertex 27.0572 4.16844 11.9
    endloop
  endfacet
  facet normal 0.707066 -0.707148 0
    outer loop
      vertex 27.0572 4.16844 12.4
      vertex 27.8316 4.94275 11.9
      vertex 27.8316 4.94275 12.4
    endloop
  endfacet
  facet normal 0.707066 -0.707148 0
    outer loop
      vertex 27.8316 4.94275 11.9
      vertex 27.0572 4.16844 12.4
      vertex 27.0572 4.16844 11.9
    endloop
  endfacet
  facet normal 0.101215 -0.101227 0.989701
    outer loop
      vertex 27.0572 4.16844 12.4
      vertex 27.8316 4.94275 12.4
      vertex 25 7 12.9
    endloop
  endfacet
  facet normal 0.707158 -0.707056 0
    outer loop
      vertex 26.4695 4.97746 9.9
      vertex 27.0225 5.53054 3.1
      vertex 27.0225 5.53054 9.9
    endloop
  endfacet
  facet normal 0.707158 -0.707056 0
    outer loop
      vertex 27.0225 5.53054 3.1
      vertex 26.4695 4.97746 9.9
      vertex 26.4695 4.97746 3.1
    endloop
  endfacet
  facet normal 0.407092 -0.798887 -0.442782
    outer loop
      vertex 26.4695 4.97746 9.9
      vertex 27.0572 4.16844 11.9
      vertex 26.0816 3.6713 11.9
    endloop
  endfacet
  facet normal 0.407019 -0.798909 -0.44281
    outer loop
      vertex 26.4695 4.97746 9.9
      vertex 26.0816 3.6713 11.9
      vertex 25.7725 4.62236 9.9
    endloop
  endfacet
  facet normal 0.454025 -0.890989 0
    outer loop
      vertex 26.0816 3.6713 11.9
      vertex 27.0572 4.16844 12.4
      vertex 26.0816 3.6713 12.4
    endloop
  endfacet
  facet normal 0.454025 -0.890989 0
    outer loop
      vertex 27.0572 4.16844 12.4
      vertex 26.0816 3.6713 11.9
      vertex 27.0572 4.16844 11.9
    endloop
  endfacet
  facet normal 0.0649928 -0.127544 0.989701
    outer loop
      vertex 26.0816 3.6713 12.4
      vertex 27.0572 4.16844 12.4
      vertex 25 7 12.9
    endloop
  endfacet
  facet normal 0.453951 -0.891027 0
    outer loop
      vertex 25.7725 4.62236 3.1
      vertex 26.4695 4.97746 9.9
      vertex 25.7725 4.62236 9.9
    endloop
  endfacet
  facet normal 0.453951 -0.891027 0
    outer loop
      vertex 26.4695 4.97746 9.9
      vertex 25.7725 4.62236 3.1
      vertex 26.4695 4.97746 3.1
    endloop
  endfacet
  facet normal 0.140256 -0.885584 -0.442798
    outer loop
      vertex 25.7725 4.62236 9.9
      vertex 26.0816 3.6713 11.9
      vertex 25 3.5 11.9
    endloop
  endfacet
  facet normal 0.140272 -0.885584 -0.442792
    outer loop
      vertex 25 4.5 9.9
      vertex 25.7725 4.62236 9.9
      vertex 25 3.5 11.9
    endloop
  endfacet
  facet normal 0.156427 -0.98769 0
    outer loop
      vertex 25 3.5 11.9
      vertex 26.0816 3.6713 12.4
      vertex 25 3.5 12.4
    endloop
  endfacet
  facet normal 0.156427 -0.98769 0
    outer loop
      vertex 26.0816 3.6713 12.4
      vertex 25 3.5 11.9
      vertex 26.0816 3.6713 11.9
    endloop
  endfacet
  facet normal 0.0223922 -0.141386 0.989701
    outer loop
      vertex 26.0816 3.6713 12.4
      vertex 25 7 12.9
      vertex 25 3.5 12.4
    endloop
  endfacet
  facet normal 0.156444 -0.987687 0
    outer loop
      vertex 25 4.5 3.1
      vertex 25.7725 4.62236 9.9
      vertex 25 4.5 9.9
    endloop
  endfacet
  facet normal 0.156444 -0.987687 0
    outer loop
      vertex 25.7725 4.62236 9.9
      vertex 25 4.5 3.1
      vertex 25.7725 4.62236 3.1
    endloop
  endfacet
  facet normal -0.140256 -0.885586 -0.442793
    outer loop
      vertex 25 4.5 9.9
      vertex 25 3.5 11.9
      vertex 23.9184 3.6713 11.9
    endloop
  endfacet
  facet normal -0.140271 -0.885581 -0.442799
    outer loop
      vertex 24.2275 4.62236 9.9
      vertex 25 4.5 9.9
      vertex 23.9184 3.6713 11.9
    endloop
  endfacet
  facet normal -0.156427 -0.98769 0
    outer loop
      vertex 23.9184 3.6713 11.9
      vertex 25 3.5 12.4
      vertex 23.9184 3.6713 12.4
    endloop
  endfacet
  facet normal -0.156427 -0.98769 -0
    outer loop
      vertex 25 3.5 12.4
      vertex 23.9184 3.6713 11.9
      vertex 25 3.5 11.9
    endloop
  endfacet
  facet normal -0.0223922 -0.141386 0.989701
    outer loop
      vertex 25 3.5 12.4
      vertex 25 7 12.9
      vertex 23.9184 3.6713 12.4
    endloop
  endfacet
  facet normal -0.156444 -0.987687 0
    outer loop
      vertex 24.2275 4.62236 3.1
      vertex 25 4.5 9.9
      vertex 24.2275 4.62236 9.9
    endloop
  endfacet
  facet normal -0.156444 -0.987687 -0
    outer loop
      vertex 25 4.5 9.9
      vertex 24.2275 4.62236 3.1
      vertex 25 4.5 3.1
    endloop
  endfacet
  facet normal -0.407087 -0.798877 -0.442805
    outer loop
      vertex 24.2275 4.62236 9.9
      vertex 23.9184 3.6713 11.9
      vertex 22.9428 4.16844 11.9
    endloop
  endfacet
  facet normal -0.407027 -0.798923 -0.442777
    outer loop
      vertex 23.5305 4.97746 9.9
      vertex 24.2275 4.62236 9.9
      vertex 22.9428 4.16844 11.9
    endloop
  endfacet
  facet normal -0.454025 -0.890989 0
    outer loop
      vertex 22.9428 4.16844 11.9
      vertex 23.9184 3.6713 12.4
      vertex 22.9428 4.16844 12.4
    endloop
  endfacet
  facet normal -0.454025 -0.890989 -0
    outer loop
      vertex 23.9184 3.6713 12.4
      vertex 22.9428 4.16844 11.9
      vertex 23.9184 3.6713 11.9
    endloop
  endfacet
  facet normal -0.0649928 -0.127544 0.989701
    outer loop
      vertex 23.9184 3.6713 12.4
      vertex 25 7 12.9
      vertex 22.9428 4.16844 12.4
    endloop
  endfacet
  facet normal -0.453951 -0.891027 0
    outer loop
      vertex 23.5305 4.97746 3.1
      vertex 24.2275 4.62236 9.9
      vertex 23.5305 4.97746 9.9
    endloop
  endfacet
  facet normal -0.453951 -0.891027 -0
    outer loop
      vertex 24.2275 4.62236 9.9
      vertex 23.5305 4.97746 3.1
      vertex 24.2275 4.62236 3.1
    endloop
  endfacet
  facet normal -0.634046 -0.633954 -0.442819
    outer loop
      vertex 23.5305 4.97746 9.9
      vertex 22.1684 4.94275 11.9
      vertex 22.9775 5.53054 9.9
    endloop
  endfacet
  facet normal -0.633978 -0.634052 -0.442775
    outer loop
      vertex 22.1684 4.94275 11.9
      vertex 23.5305 4.97746 9.9
      vertex 22.9428 4.16844 11.9
    endloop
  endfacet
  facet normal -0.707066 -0.707148 0
    outer loop
      vertex 22.9428 4.16844 11.9
      vertex 22.1684 4.94275 12.4
      vertex 22.1684 4.94275 11.9
    endloop
  endfacet
  facet normal -0.707066 -0.707148 0
    outer loop
      vertex 22.1684 4.94275 12.4
      vertex 22.9428 4.16844 11.9
      vertex 22.9428 4.16844 12.4
    endloop
  endfacet
  facet normal -0.101215 -0.101227 0.989701
    outer loop
      vertex 22.9428 4.16844 12.4
      vertex 25 7 12.9
      vertex 22.1684 4.94275 12.4
    endloop
  endfacet
  facet normal -0.707158 -0.707056 0
    outer loop
      vertex 23.5305 4.97746 3.1
      vertex 22.9775 5.53054 9.9
      vertex 22.9775 5.53054 3.1
    endloop
  endfacet
  facet normal -0.707158 -0.707056 0
    outer loop
      vertex 22.9775 5.53054 9.9
      vertex 23.5305 4.97746 3.1
      vertex 23.5305 4.97746 9.9
    endloop
  endfacet
  facet normal -0.798899 -0.407028 -0.442818
    outer loop
      vertex 22.9775 5.53054 9.9
      vertex 22.1684 4.94275 11.9
      vertex 21.6713 5.91844 11.9
    endloop
  endfacet
  facet normal -0.798891 -0.407057 -0.442807
    outer loop
      vertex 22.6224 6.22746 9.9
      vertex 22.9775 5.53054 9.9
      vertex 21.6713 5.91844 11.9
    endloop
  endfacet
  facet normal -0.891021 -0.453962 0
    outer loop
      vertex 22.1684 4.94275 11.9
      vertex 21.6713 5.91844 12.4
      vertex 21.6713 5.91844 11.9
    endloop
  endfacet
  facet normal -0.891021 -0.453962 0
    outer loop
      vertex 21.6713 5.91844 12.4
      vertex 22.1684 4.94275 11.9
      vertex 22.1684 4.94275 12.4
    endloop
  endfacet
  facet normal -0.127547 -0.0649836 0.989701
    outer loop
      vertex 22.1684 4.94275 12.4
      vertex 25 7 12.9
      vertex 21.6713 5.91844 12.4
    endloop
  endfacet
  facet normal -0.891006 -0.453992 0
    outer loop
      vertex 22.9775 5.53054 3.1
      vertex 22.6224 6.22746 9.9
      vertex 22.6224 6.22746 3.1
    endloop
  endfacet
  facet normal -0.891006 -0.453992 0
    outer loop
      vertex 22.6224 6.22746 9.9
      vertex 22.9775 5.53054 3.1
      vertex 22.9775 5.53054 9.9
    endloop
  endfacet
  facet normal -0.885578 -0.14026 -0.442808
    outer loop
      vertex 22.6224 6.22746 9.9
      vertex 21.6713 5.91844 11.9
      vertex 21.5 7 11.9
    endloop
  endfacet
  facet normal -0.885579 -0.14031 -0.44279
    outer loop
      vertex 22.5 7 9.9
      vertex 22.6224 6.22746 9.9
      vertex 21.5 7 11.9
    endloop
  endfacet
  facet normal -0.987689 -0.156432 0
    outer loop
      vertex 21.6713 5.91844 11.9
      vertex 21.5 7 12.4
      vertex 21.5 7 11.9
    endloop
  endfacet
  facet normal -0.987689 -0.156432 0
    outer loop
      vertex 21.5 7 12.4
      vertex 21.6713 5.91844 11.9
      vertex 21.6713 5.91844 12.4
    endloop
  endfacet
  facet normal -0.141386 -0.022393 0.989701
    outer loop
      vertex 21.6713 5.91844 12.4
      vertex 25 7 12.9
      vertex 21.5 7 12.4
    endloop
  endfacet
  facet normal -0.98768 -0.156486 0
    outer loop
      vertex 22.6224 6.22746 3.1
      vertex 22.5 7 9.9
      vertex 22.5 7 3.1
    endloop
  endfacet
  facet normal -0.98768 -0.156486 0
    outer loop
      vertex 22.5 7 9.9
      vertex 22.6224 6.22746 3.1
      vertex 22.6224 6.22746 9.9
    endloop
  endfacet
endsolid OpenSCAD_Model
