solid OpenSCAD_Model
  facet normal 0.433798 0 0.90101
    outer loop
      vertex 121.436 21 11.753
      vertex 123 18 11
      vertex 123 21 11
    endloop
  endfacet
  facet normal 0.433798 0 0.90101
    outer loop
      vertex 123 18 11
      vertex 121.436 21 11.753
      vertex 121.436 18 11.753
    endloop
  endfacet
  facet normal -0.781857 0 -0.623458
    outer loop
      vertex 124.95 18 13.445
      vertex 123.868 21 14.8019
      vertex 124.95 21 13.445
    endloop
  endfacet
  facet normal -0.781857 -0 -0.623458
    outer loop
      vertex 123.868 21 14.8019
      vertex 124.95 18 13.445
      vertex 123.868 18 14.8019
    endloop
  endfacet
  facet normal -0.433798 0 0.90101
    outer loop
      vertex 123 21 11
      vertex 124.564 18 11.753
      vertex 124.564 21 11.753
    endloop
  endfacet
  facet normal -0.433798 0 0.90101
    outer loop
      vertex 124.564 18 11.753
      vertex 123 21 11
      vertex 123 18 11
    endloop
  endfacet
  facet normal -0.974951 0 0.222418
    outer loop
      vertex 124.564 18 11.753
      vertex 124.95 21 13.445
      vertex 124.564 21 11.753
    endloop
  endfacet
  facet normal -0.974951 0 0.222418
    outer loop
      vertex 124.95 21 13.445
      vertex 124.564 18 11.753
      vertex 124.95 18 13.445
    endloop
  endfacet
  facet normal 0.781857 0 -0.623458
    outer loop
      vertex 122.132 18 14.8019
      vertex 121.05 21 13.445
      vertex 122.132 21 14.8019
    endloop
  endfacet
  facet normal 0.781857 0 -0.623458
    outer loop
      vertex 121.05 21 13.445
      vertex 122.132 18 14.8019
      vertex 121.05 18 13.445
    endloop
  endfacet
  facet normal 0.974951 -0 0.222418
    outer loop
      vertex 121.05 18 13.445
      vertex 121.436 21 11.753
      vertex 121.05 21 13.445
    endloop
  endfacet
  facet normal 0.974951 0 0.222418
    outer loop
      vertex 121.436 21 11.753
      vertex 121.05 18 13.445
      vertex 121.436 18 11.753
    endloop
  endfacet
  facet normal 0 0 -1
    outer loop
      vertex 122.132 18 14.8019
      vertex 123.868 21 14.8019
      vertex 123.868 18 14.8019
    endloop
  endfacet
  facet normal -0 0 -1
    outer loop
      vertex 123.868 21 14.8019
      vertex 122.132 18 14.8019
      vertex 122.132 21 14.8019
    endloop
  endfacet
  facet normal 0.808969 0 -0.587851
    outer loop
      vertex 121.237 21 15.4271
      vertex 120.147 35 13.9271
      vertex 121.237 35 15.4271
    endloop
  endfacet
  facet normal 0.808969 0 -0.587851
    outer loop
      vertex 120.147 35 13.9271
      vertex 121.237 21 15.4271
      vertex 120.147 21 13.9271
    endloop
  endfacet
  facet normal -0.309049 0 0.951046
    outer loop
      vertex 123 35 10
      vertex 124.763 21 10.5729
      vertex 124.763 35 10.5729
    endloop
  endfacet
  facet normal -0.309049 0 0.951046
    outer loop
      vertex 124.763 21 10.5729
      vertex 123 35 10
      vertex 123 21 10
    endloop
  endfacet
  facet normal -1 0 0
    outer loop
      vertex 125.853 21 12.0729
      vertex 125.853 35 13.9271
      vertex 125.853 35 12.0729
    endloop
  endfacet
  facet normal -1 -0 0
    outer loop
      vertex 125.853 35 13.9271
      vertex 125.853 21 12.0729
      vertex 125.853 21 13.9271
    endloop
  endfacet
  facet normal 0.808969 -0 0.587851
    outer loop
      vertex 120.147 21 12.0729
      vertex 121.237 35 10.5729
      vertex 120.147 35 12.0729
    endloop
  endfacet
  facet normal 0.808969 0 0.587851
    outer loop
      vertex 121.237 35 10.5729
      vertex 120.147 21 12.0729
      vertex 121.237 21 10.5729
    endloop
  endfacet
  facet normal -0.808969 0 -0.587851
    outer loop
      vertex 125.853 21 13.9271
      vertex 124.763 35 15.4271
      vertex 125.853 35 13.9271
    endloop
  endfacet
  facet normal -0.808969 -0 -0.587851
    outer loop
      vertex 124.763 35 15.4271
      vertex 125.853 21 13.9271
      vertex 124.763 21 15.4271
    endloop
  endfacet
  facet normal 0.309049 0 0.951046
    outer loop
      vertex 121.237 35 10.5729
      vertex 123 21 10
      vertex 123 35 10
    endloop
  endfacet
  facet normal 0.309049 0 0.951046
    outer loop
      vertex 123 21 10
      vertex 121.237 35 10.5729
      vertex 121.237 21 10.5729
    endloop
  endfacet
  facet normal 0 1 -0
    outer loop
      vertex 123.868 21 14.8019
      vertex 123 21 16
      vertex 124.763 21 15.4271
    endloop
  endfacet
  facet normal 0 1 0
    outer loop
      vertex 122.132 21 14.8019
      vertex 123 21 16
      vertex 123.868 21 14.8019
    endloop
  endfacet
  facet normal 0 1 -0
    outer loop
      vertex 124.95 21 13.445
      vertex 124.763 21 15.4271
      vertex 125.853 21 13.9271
    endloop
  endfacet
  facet normal 0 1 0
    outer loop
      vertex 124.763 21 15.4271
      vertex 124.95 21 13.445
      vertex 123.868 21 14.8019
    endloop
  endfacet
  facet normal 0 1 -0
    outer loop
      vertex 125.853 21 12.0729
      vertex 124.95 21 13.445
      vertex 125.853 21 13.9271
    endloop
  endfacet
  facet normal 0 1 0
    outer loop
      vertex 125.853 21 12.0729
      vertex 124.564 21 11.753
      vertex 124.95 21 13.445
    endloop
  endfacet
  facet normal 0 1 -0
    outer loop
      vertex 124.763 21 10.5729
      vertex 124.564 21 11.753
      vertex 125.853 21 12.0729
    endloop
  endfacet
  facet normal 0 1 0
    outer loop
      vertex 124.564 21 11.753
      vertex 124.763 21 10.5729
      vertex 123 21 11
    endloop
  endfacet
  facet normal 0 1 0
    outer loop
      vertex 123 21 16
      vertex 122.132 21 14.8019
      vertex 121.237 21 15.4271
    endloop
  endfacet
  facet normal 0 1 0
    outer loop
      vertex 121.05 21 13.445
      vertex 121.237 21 15.4271
      vertex 122.132 21 14.8019
    endloop
  endfacet
  facet normal 0 1 0
    outer loop
      vertex 121.237 21 15.4271
      vertex 121.05 21 13.445
      vertex 120.147 21 13.9271
    endloop
  endfacet
  facet normal 0 1 0
    outer loop
      vertex 121.05 21 13.445
      vertex 120.147 21 12.0729
      vertex 120.147 21 13.9271
    endloop
  endfacet
  facet normal 0 1 0
    outer loop
      vertex 121.436 21 11.753
      vertex 120.147 21 12.0729
      vertex 121.05 21 13.445
    endloop
  endfacet
  facet normal 0 1 0
    outer loop
      vertex 121.237 21 10.5729
      vertex 121.436 21 11.753
      vertex 123 21 11
    endloop
  endfacet
  facet normal 0 1 0
    outer loop
      vertex 121.436 21 11.753
      vertex 121.237 21 10.5729
      vertex 120.147 21 12.0729
    endloop
  endfacet
  facet normal 0 1 0
    outer loop
      vertex 123 21 10
      vertex 123 21 11
      vertex 124.763 21 10.5729
    endloop
  endfacet
  facet normal 0 1 0
    outer loop
      vertex 123 21 11
      vertex 123 21 10
      vertex 121.237 21 10.5729
    endloop
  endfacet
  facet normal 0.309049 0 -0.951046
    outer loop
      vertex 121.237 21 15.4271
      vertex 123 35 16
      vertex 123 21 16
    endloop
  endfacet
  facet normal 0.309049 0 -0.951046
    outer loop
      vertex 123 35 16
      vertex 121.237 21 15.4271
      vertex 121.237 35 15.4271
    endloop
  endfacet
  facet normal 1 -0 0
    outer loop
      vertex 120.147 21 13.9271
      vertex 120.147 35 12.0729
      vertex 120.147 35 13.9271
    endloop
  endfacet
  facet normal 1 0 0
    outer loop
      vertex 120.147 35 12.0729
      vertex 120.147 21 13.9271
      vertex 120.147 21 12.0729
    endloop
  endfacet
  facet normal -0.808969 0 0.587851
    outer loop
      vertex 124.763 21 10.5729
      vertex 125.853 35 12.0729
      vertex 124.763 35 10.5729
    endloop
  endfacet
  facet normal -0.808969 0 0.587851
    outer loop
      vertex 125.853 35 12.0729
      vertex 124.763 21 10.5729
      vertex 125.853 21 12.0729
    endloop
  endfacet
  facet normal -0.309049 0 -0.951046
    outer loop
      vertex 123 21 16
      vertex 124.763 35 15.4271
      vertex 124.763 21 15.4271
    endloop
  endfacet
  facet normal -0.309049 0 -0.951046
    outer loop
      vertex 124.763 35 15.4271
      vertex 123 21 16
      vertex 123 35 16
    endloop
  endfacet
  facet normal 0.433798 0 0.90101
    outer loop
      vertex 121.436 21 131.753
      vertex 123 18 131
      vertex 123 21 131
    endloop
  endfacet
  facet normal 0.433798 0 0.90101
    outer loop
      vertex 123 18 131
      vertex 121.436 21 131.753
      vertex 121.436 18 131.753
    endloop
  endfacet
  facet normal -0.78188 0 -0.623429
    outer loop
      vertex 124.95 18 133.445
      vertex 123.868 21 134.802
      vertex 124.95 21 133.445
    endloop
  endfacet
  facet normal -0.78188 -0 -0.623429
    outer loop
      vertex 123.868 21 134.802
      vertex 124.95 18 133.445
      vertex 123.868 18 134.802
    endloop
  endfacet
  facet normal -0.433798 0 0.90101
    outer loop
      vertex 123 21 131
      vertex 124.564 18 131.753
      vertex 124.564 21 131.753
    endloop
  endfacet
  facet normal -0.433798 0 0.90101
    outer loop
      vertex 124.564 18 131.753
      vertex 123 21 131
      vertex 123 18 131
    endloop
  endfacet
  facet normal -0.974951 0 0.222418
    outer loop
      vertex 124.564 18 131.753
      vertex 124.95 21 133.445
      vertex 124.564 21 131.753
    endloop
  endfacet
  facet normal -0.974951 0 0.222418
    outer loop
      vertex 124.95 21 133.445
      vertex 124.564 18 131.753
      vertex 124.95 18 133.445
    endloop
  endfacet
  facet normal 0.78188 0 -0.623429
    outer loop
      vertex 122.132 18 134.802
      vertex 121.05 21 133.445
      vertex 122.132 21 134.802
    endloop
  endfacet
  facet normal 0.78188 0 -0.623429
    outer loop
      vertex 121.05 21 133.445
      vertex 122.132 18 134.802
      vertex 121.05 18 133.445
    endloop
  endfacet
  facet normal 0.974951 -0 0.222418
    outer loop
      vertex 121.05 18 133.445
      vertex 121.436 21 131.753
      vertex 121.05 21 133.445
    endloop
  endfacet
  facet normal 0.974951 0 0.222418
    outer loop
      vertex 121.436 21 131.753
      vertex 121.05 18 133.445
      vertex 121.436 18 131.753
    endloop
  endfacet
  facet normal 0 0 -1
    outer loop
      vertex 122.132 18 134.802
      vertex 123.868 21 134.802
      vertex 123.868 18 134.802
    endloop
  endfacet
  facet normal -0 0 -1
    outer loop
      vertex 123.868 21 134.802
      vertex 122.132 18 134.802
      vertex 122.132 21 134.802
    endloop
  endfacet
  facet normal 0.808969 0 -0.587851
    outer loop
      vertex 121.237 21 135.427
      vertex 120.147 35 133.927
      vertex 121.237 35 135.427
    endloop
  endfacet
  facet normal 0.808969 0 -0.587851
    outer loop
      vertex 120.147 35 133.927
      vertex 121.237 21 135.427
      vertex 120.147 21 133.927
    endloop
  endfacet
  facet normal -0.309098 0 0.95103
    outer loop
      vertex 123 35 130
      vertex 124.763 21 130.573
      vertex 124.763 35 130.573
    endloop
  endfacet
  facet normal -0.309098 0 0.95103
    outer loop
      vertex 124.763 21 130.573
      vertex 123 35 130
      vertex 123 21 130
    endloop
  endfacet
  facet normal -1 0 0
    outer loop
      vertex 125.853 21 132.073
      vertex 125.853 35 133.927
      vertex 125.853 35 132.073
    endloop
  endfacet
  facet normal -1 -0 0
    outer loop
      vertex 125.853 35 133.927
      vertex 125.853 21 132.073
      vertex 125.853 21 133.927
    endloop
  endfacet
  facet normal 0.808969 -0 0.587851
    outer loop
      vertex 120.147 21 132.073
      vertex 121.237 35 130.573
      vertex 120.147 35 132.073
    endloop
  endfacet
  facet normal 0.808969 0 0.587851
    outer loop
      vertex 121.237 35 130.573
      vertex 120.147 21 132.073
      vertex 121.237 21 130.573
    endloop
  endfacet
  facet normal -0.808969 0 -0.587851
    outer loop
      vertex 125.853 21 133.927
      vertex 124.763 35 135.427
      vertex 125.853 35 133.927
    endloop
  endfacet
  facet normal -0.808969 -0 -0.587851
    outer loop
      vertex 124.763 35 135.427
      vertex 125.853 21 133.927
      vertex 124.763 21 135.427
    endloop
  endfacet
  facet normal 0.309098 0 0.95103
    outer loop
      vertex 121.237 35 130.573
      vertex 123 21 130
      vertex 123 35 130
    endloop
  endfacet
  facet normal 0.309098 0 0.95103
    outer loop
      vertex 123 21 130
      vertex 121.237 35 130.573
      vertex 121.237 21 130.573
    endloop
  endfacet
  facet normal 0 1 -0
    outer loop
      vertex 123.868 21 134.802
      vertex 123 21 136
      vertex 124.763 21 135.427
    endloop
  endfacet
  facet normal 0 1 0
    outer loop
      vertex 122.132 21 134.802
      vertex 123 21 136
      vertex 123.868 21 134.802
    endloop
  endfacet
  facet normal 0 1 -0
    outer loop
      vertex 124.95 21 133.445
      vertex 124.763 21 135.427
      vertex 125.853 21 133.927
    endloop
  endfacet
  facet normal 0 1 0
    outer loop
      vertex 124.763 21 135.427
      vertex 124.95 21 133.445
      vertex 123.868 21 134.802
    endloop
  endfacet
  facet normal 0 1 -0
    outer loop
      vertex 125.853 21 132.073
      vertex 124.95 21 133.445
      vertex 125.853 21 133.927
    endloop
  endfacet
  facet normal 0 1 0
    outer loop
      vertex 125.853 21 132.073
      vertex 124.564 21 131.753
      vertex 124.95 21 133.445
    endloop
  endfacet
  facet normal 0 1 -0
    outer loop
      vertex 124.763 21 130.573
      vertex 124.564 21 131.753
      vertex 125.853 21 132.073
    endloop
  endfacet
  facet normal 0 1 0
    outer loop
      vertex 124.564 21 131.753
      vertex 124.763 21 130.573
      vertex 123 21 131
    endloop
  endfacet
  facet normal 0 1 0
    outer loop
      vertex 123 21 136
      vertex 122.132 21 134.802
      vertex 121.237 21 135.427
    endloop
  endfacet
  facet normal 0 1 0
    outer loop
      vertex 121.05 21 133.445
      vertex 121.237 21 135.427
      vertex 122.132 21 134.802
    endloop
  endfacet
  facet normal 0 1 0
    outer loop
      vertex 121.237 21 135.427
      vertex 121.05 21 133.445
      vertex 120.147 21 133.927
    endloop
  endfacet
  facet normal 0 1 0
    outer loop
      vertex 121.05 21 133.445
      vertex 120.147 21 132.073
      vertex 120.147 21 133.927
    endloop
  endfacet
  facet normal 0 1 0
    outer loop
      vertex 121.436 21 131.753
      vertex 120.147 21 132.073
      vertex 121.05 21 133.445
    endloop
  endfacet
  facet normal 0 1 0
    outer loop
      vertex 121.237 21 130.573
      vertex 121.436 21 131.753
      vertex 123 21 131
    endloop
  endfacet
  facet normal 0 1 0
    outer loop
      vertex 121.436 21 131.753
      vertex 121.237 21 130.573
      vertex 120.147 21 132.073
    endloop
  endfacet
  facet normal 0 1 0
    outer loop
      vertex 123 21 130
      vertex 123 21 131
      vertex 124.763 21 130.573
    endloop
  endfacet
  facet normal 0 1 0
    outer loop
      vertex 123 21 131
      vertex 123 21 130
      vertex 121.237 21 130.573
    endloop
  endfacet
  facet normal 0.309098 0 -0.95103
    outer loop
      vertex 121.237 21 135.427
      vertex 123 35 136
      vertex 123 21 136
    endloop
  endfacet
  facet normal 0.309098 0 -0.95103
    outer loop
      vertex 123 35 136
      vertex 121.237 21 135.427
      vertex 121.237 35 135.427
    endloop
  endfacet
  facet normal 1 -0 0
    outer loop
      vertex 120.147 21 133.927
      vertex 120.147 35 132.073
      vertex 120.147 35 133.927
    endloop
  endfacet
  facet normal 1 0 0
    outer loop
      vertex 120.147 35 132.073
      vertex 120.147 21 133.927
      vertex 120.147 21 132.073
    endloop
  endfacet
  facet normal -0.808969 0 0.587851
    outer loop
      vertex 124.763 21 130.573
      vertex 125.853 35 132.073
      vertex 124.763 35 130.573
    endloop
  endfacet
  facet normal -0.808969 0 0.587851
    outer loop
      vertex 125.853 35 132.073
      vertex 124.763 21 130.573
      vertex 125.853 21 132.073
    endloop
  endfacet
  facet normal -0.309098 0 -0.95103
    outer loop
      vertex 123 21 136
      vertex 124.763 35 135.427
      vertex 124.763 21 135.427
    endloop
  endfacet
  facet normal -0.309098 0 -0.95103
    outer loop
      vertex 124.763 35 135.427
      vertex 123 21 136
      vertex 123 35 136
    endloop
  endfacet
  facet normal -0.707114 0 0.707099
    outer loop
      vertex 34 32 15.5788
      vertex 38.8497 35 20.4286
      vertex 34 35 15.5788
    endloop
  endfacet
  facet normal -0.707114 0 0.707099
    outer loop
      vertex 38.8497 35 20.4286
      vertex 34 32 15.5788
      vertex 38.8497 32 20.4286
    endloop
  endfacet
  facet normal -0.707107 0 0.707107
    outer loop
      vertex 33.9 32 15.4788
      vertex 33.95 35 15.5288
      vertex 33.9 35 15.4788
    endloop
  endfacet
  facet normal -0.707107 0 0.707107
    outer loop
      vertex 33.95 35 15.5288
      vertex 33.9 32 15.4788
      vertex 33.95 32 15.5288
    endloop
  endfacet
  facet normal -0.707107 0 -0.707107
    outer loop
      vertex 38.8497 32 20.4286
      vertex 34 35 25.2783
      vertex 38.8497 35 20.4286
    endloop
  endfacet
  facet normal -0.707107 -0 -0.707107
    outer loop
      vertex 34 35 25.2783
      vertex 38.8497 32 20.4286
      vertex 34 32 25.2783
    endloop
  endfacet
  facet normal -0.707107 0 -0.707107
    outer loop
      vertex 33.95 32 25.3283
      vertex 33.9 35 25.3783
      vertex 33.95 35 25.3283
    endloop
  endfacet
  facet normal -0.707107 -0 -0.707107
    outer loop
      vertex 33.9 35 25.3783
      vertex 33.95 32 25.3283
      vertex 33.9 32 25.3783
    endloop
  endfacet
  facet normal 1 -0 0
    outer loop
      vertex 33.9 32 15.5788
      vertex 33.9 35 15.4788
      vertex 33.9 35 15.5788
    endloop
  endfacet
  facet normal 1 0 0
    outer loop
      vertex 33.9 35 15.4788
      vertex 33.9 32 15.5788
      vertex 33.9 32 15.4788
    endloop
  endfacet
  facet normal 1 -0 0
    outer loop
      vertex 33.9 32 25.3783
      vertex 33.9 35 25.2783
      vertex 33.9 35 25.3783
    endloop
  endfacet
  facet normal 1 0 0
    outer loop
      vertex 33.9 35 25.2783
      vertex 33.9 32 25.3783
      vertex 33.9 32 25.2783
    endloop
  endfacet
  facet normal 0.707114 0 0.707099
    outer loop
      vertex 29.0503 35 20.4286
      vertex 33.9 32 15.5788
      vertex 33.9 35 15.5788
    endloop
  endfacet
  facet normal 0.707114 0 0.707099
    outer loop
      vertex 33.9 32 15.5788
      vertex 29.0503 35 20.4286
      vertex 29.0503 32 20.4286
    endloop
  endfacet
  facet normal 0.707107 -0 0.707107
    outer loop
      vertex 33.95 32 15.5288
      vertex 34 35 15.4788
      vertex 33.95 35 15.5288
    endloop
  endfacet
  facet normal 0.707107 0 0.707107
    outer loop
      vertex 34 35 15.4788
      vertex 33.95 32 15.5288
      vertex 34 32 15.4788
    endloop
  endfacet
  facet normal 0.707107 0 -0.707107
    outer loop
      vertex 29.0503 32 20.4286
      vertex 33.9 35 25.2783
      vertex 33.9 32 25.2783
    endloop
  endfacet
  facet normal 0.707107 0 -0.707107
    outer loop
      vertex 33.9 35 25.2783
      vertex 29.0503 32 20.4286
      vertex 29.0503 35 20.4286
    endloop
  endfacet
  facet normal 0.707107 0 -0.707107
    outer loop
      vertex 34 32 25.3783
      vertex 33.95 35 25.3283
      vertex 34 35 25.3783
    endloop
  endfacet
  facet normal 0.707107 0 -0.707107
    outer loop
      vertex 33.95 35 25.3283
      vertex 34 32 25.3783
      vertex 33.95 32 25.3283
    endloop
  endfacet
  facet normal -1 0 0
    outer loop
      vertex 34 32 25.2783
      vertex 34 35 25.3783
      vertex 34 35 25.2783
    endloop
  endfacet
  facet normal -1 -0 0
    outer loop
      vertex 34 35 25.3783
      vertex 34 32 25.2783
      vertex 34 32 25.3783
    endloop
  endfacet
  facet normal -1 0 0
    outer loop
      vertex 34 32 15.4788
      vertex 34 35 15.5788
      vertex 34 35 15.4788
    endloop
  endfacet
  facet normal -1 -0 0
    outer loop
      vertex 34 35 15.5788
      vertex 34 32 15.4788
      vertex 34 32 15.5788
    endloop
  endfacet
  facet normal -0.707092 0 0.707121
    outer loop
      vertex 102 32 15.5788
      vertex 106.85 35 20.4286
      vertex 102 35 15.5788
    endloop
  endfacet
  facet normal -0.707092 0 0.707121
    outer loop
      vertex 106.85 35 20.4286
      vertex 102 32 15.5788
      vertex 106.85 32 20.4286
    endloop
  endfacet
  facet normal -0.707107 0 0.707107
    outer loop
      vertex 101.9 32 15.4788
      vertex 101.95 35 15.5288
      vertex 101.9 35 15.4788
    endloop
  endfacet
  facet normal -0.707107 0 0.707107
    outer loop
      vertex 101.95 35 15.5288
      vertex 101.9 32 15.4788
      vertex 101.95 32 15.5288
    endloop
  endfacet
  facet normal -0.707085 0 -0.707129
    outer loop
      vertex 106.85 32 20.4286
      vertex 102 35 25.2783
      vertex 106.85 35 20.4286
    endloop
  endfacet
  facet normal -0.707085 -0 -0.707129
    outer loop
      vertex 102 35 25.2783
      vertex 106.85 32 20.4286
      vertex 102 32 25.2783
    endloop
  endfacet
  facet normal -0.707107 0 -0.707107
    outer loop
      vertex 101.95 32 25.3283
      vertex 101.9 35 25.3783
      vertex 101.95 35 25.3283
    endloop
  endfacet
  facet normal -0.707107 -0 -0.707107
    outer loop
      vertex 101.9 35 25.3783
      vertex 101.95 32 25.3283
      vertex 101.9 32 25.3783
    endloop
  endfacet
  facet normal 1 -0 0
    outer loop
      vertex 101.9 32 15.5788
      vertex 101.9 35 15.4788
      vertex 101.9 35 15.5788
    endloop
  endfacet
  facet normal 1 0 0
    outer loop
      vertex 101.9 35 15.4788
      vertex 101.9 32 15.5788
      vertex 101.9 32 15.4788
    endloop
  endfacet
  facet normal 1 -0 0
    outer loop
      vertex 101.9 32 25.3783
      vertex 101.9 35 25.2783
      vertex 101.9 35 25.3783
    endloop
  endfacet
  facet normal 1 0 0
    outer loop
      vertex 101.9 35 25.2783
      vertex 101.9 32 25.3783
      vertex 101.9 32 25.2783
    endloop
  endfacet
  facet normal 0.707114 -0 0.707099
    outer loop
      vertex 97.0503 32 20.4286
      vertex 101.9 35 15.5788
      vertex 97.0503 35 20.4286
    endloop
  endfacet
  facet normal 0.707114 0 0.707099
    outer loop
      vertex 101.9 35 15.5788
      vertex 97.0503 32 20.4286
      vertex 101.9 32 15.5788
    endloop
  endfacet
  facet normal 0.707107 0 0.707107
    outer loop
      vertex 101.95 35 15.5288
      vertex 102 32 15.4788
      vertex 102 35 15.4788
    endloop
  endfacet
  facet normal 0.707107 0 0.707107
    outer loop
      vertex 102 32 15.4788
      vertex 101.95 35 15.5288
      vertex 101.95 32 15.5288
    endloop
  endfacet
  facet normal 0.707107 0 -0.707107
    outer loop
      vertex 101.9 32 25.2783
      vertex 97.0503 35 20.4286
      vertex 101.9 35 25.2783
    endloop
  endfacet
  facet normal 0.707107 0 -0.707107
    outer loop
      vertex 97.0503 35 20.4286
      vertex 101.9 32 25.2783
      vertex 97.0503 32 20.4286
    endloop
  endfacet
  facet normal 0.707107 0 -0.707107
    outer loop
      vertex 101.95 32 25.3283
      vertex 102 35 25.3783
      vertex 102 32 25.3783
    endloop
  endfacet
  facet normal 0.707107 0 -0.707107
    outer loop
      vertex 102 35 25.3783
      vertex 101.95 32 25.3283
      vertex 101.95 35 25.3283
    endloop
  endfacet
  facet normal -1 0 0
    outer loop
      vertex 102 32 25.2783
      vertex 102 35 25.3783
      vertex 102 35 25.2783
    endloop
  endfacet
  facet normal -1 -0 0
    outer loop
      vertex 102 35 25.3783
      vertex 102 32 25.2783
      vertex 102 32 25.3783
    endloop
  endfacet
  facet normal -1 0 0
    outer loop
      vertex 102 32 15.4788
      vertex 102 35 15.5788
      vertex 102 35 15.4788
    endloop
  endfacet
  facet normal -1 -0 0
    outer loop
      vertex 102 35 15.5788
      vertex 102 32 15.4788
      vertex 102 32 15.5788
    endloop
  endfacet
  facet normal 0.433875 0 0.900973
    outer loop
      vertex 9.43634 21 11.753
      vertex 11 18 11
      vertex 11 21 11
    endloop
  endfacet
  facet normal 0.433875 0 0.900973
    outer loop
      vertex 11 18 11
      vertex 9.43634 21 11.753
      vertex 9.43634 18 11.753
    endloop
  endfacet
  facet normal -0.781829 0 -0.623493
    outer loop
      vertex 12.9499 18 13.445
      vertex 11.8678 21 14.8019
      vertex 12.9499 21 13.445
    endloop
  endfacet
  facet normal -0.781829 -0 -0.623493
    outer loop
      vertex 11.8678 21 14.8019
      vertex 12.9499 18 13.445
      vertex 11.8678 18 14.8019
    endloop
  endfacet
  facet normal -0.433866 0 0.900977
    outer loop
      vertex 11 21 11
      vertex 12.5637 18 11.753
      vertex 12.5637 21 11.753
    endloop
  endfacet
  facet normal -0.433866 0 0.900977
    outer loop
      vertex 12.5637 18 11.753
      vertex 11 21 11
      vertex 11 18 11
    endloop
  endfacet
  facet normal -0.974926 0 0.222528
    outer loop
      vertex 12.5637 18 11.753
      vertex 12.9499 21 13.445
      vertex 12.5637 21 11.753
    endloop
  endfacet
  facet normal -0.974926 0 0.222528
    outer loop
      vertex 12.9499 21 13.445
      vertex 12.5637 18 11.753
      vertex 12.9499 18 13.445
    endloop
  endfacet
  facet normal 0.78184 0 -0.623479
    outer loop
      vertex 10.1322 18 14.8019
      vertex 9.05014 21 13.445
      vertex 10.1322 21 14.8019
    endloop
  endfacet
  facet normal 0.78184 0 -0.623479
    outer loop
      vertex 9.05014 21 13.445
      vertex 10.1322 18 14.8019
      vertex 9.05014 18 13.445
    endloop
  endfacet
  facet normal 0.974926 -0 0.222528
    outer loop
      vertex 9.05014 18 13.445
      vertex 9.43634 21 11.753
      vertex 9.05014 21 13.445
    endloop
  endfacet
  facet normal 0.974926 0 0.222528
    outer loop
      vertex 9.43634 21 11.753
      vertex 9.05014 18 13.445
      vertex 9.43634 18 11.753
    endloop
  endfacet
  facet normal 0 0 -1
    outer loop
      vertex 10.1322 18 14.8019
      vertex 11.8678 21 14.8019
      vertex 11.8678 18 14.8019
    endloop
  endfacet
  facet normal -0 0 -1
    outer loop
      vertex 11.8678 21 14.8019
      vertex 10.1322 18 14.8019
      vertex 10.1322 21 14.8019
    endloop
  endfacet
  facet normal 0.809018 0 -0.587784
    outer loop
      vertex 9.23664 21 15.4271
      vertex 8.14683 35 13.9271
      vertex 9.23664 35 15.4271
    endloop
  endfacet
  facet normal 0.809018 0 -0.587784
    outer loop
      vertex 8.14683 35 13.9271
      vertex 9.23664 21 15.4271
      vertex 8.14683 21 13.9271
    endloop
  endfacet
  facet normal -0.308986 0 0.951067
    outer loop
      vertex 11 35 10
      vertex 12.7634 21 10.5729
      vertex 12.7634 35 10.5729
    endloop
  endfacet
  facet normal -0.308986 0 0.951067
    outer loop
      vertex 12.7634 21 10.5729
      vertex 11 35 10
      vertex 11 21 10
    endloop
  endfacet
  facet normal -1 0 0
    outer loop
      vertex 13.8532 21 12.0729
      vertex 13.8532 35 13.9271
      vertex 13.8532 35 12.0729
    endloop
  endfacet
  facet normal -1 -0 0
    outer loop
      vertex 13.8532 35 13.9271
      vertex 13.8532 21 12.0729
      vertex 13.8532 21 13.9271
    endloop
  endfacet
  facet normal 0.809018 -0 0.587784
    outer loop
      vertex 8.14683 21 12.0729
      vertex 9.23664 35 10.5729
      vertex 8.14683 35 12.0729
    endloop
  endfacet
  facet normal 0.809018 0 0.587784
    outer loop
      vertex 9.23664 35 10.5729
      vertex 8.14683 21 12.0729
      vertex 9.23664 21 10.5729
    endloop
  endfacet
  facet normal -0.809021 0 -0.58778
    outer loop
      vertex 13.8532 21 13.9271
      vertex 12.7634 35 15.4271
      vertex 13.8532 35 13.9271
    endloop
  endfacet
  facet normal -0.809021 -0 -0.58778
    outer loop
      vertex 12.7634 35 15.4271
      vertex 13.8532 21 13.9271
      vertex 12.7634 21 15.4271
    endloop
  endfacet
  facet normal 0.308992 0 0.951065
    outer loop
      vertex 9.23664 35 10.5729
      vertex 11 21 10
      vertex 11 35 10
    endloop
  endfacet
  facet normal 0.308992 0 0.951065
    outer loop
      vertex 11 21 10
      vertex 9.23664 35 10.5729
      vertex 9.23664 21 10.5729
    endloop
  endfacet
  facet normal 0 1 -0
    outer loop
      vertex 11.8678 21 14.8019
      vertex 11 21 16
      vertex 12.7634 21 15.4271
    endloop
  endfacet
  facet normal 0 1 0
    outer loop
      vertex 10.1322 21 14.8019
      vertex 11 21 16
      vertex 11.8678 21 14.8019
    endloop
  endfacet
  facet normal 0 1 -0
    outer loop
      vertex 12.9499 21 13.445
      vertex 12.7634 21 15.4271
      vertex 13.8532 21 13.9271
    endloop
  endfacet
  facet normal 0 1 0
    outer loop
      vertex 12.7634 21 15.4271
      vertex 12.9499 21 13.445
      vertex 11.8678 21 14.8019
    endloop
  endfacet
  facet normal 0 1 -0
    outer loop
      vertex 13.8532 21 12.0729
      vertex 12.9499 21 13.445
      vertex 13.8532 21 13.9271
    endloop
  endfacet
  facet normal 0 1 0
    outer loop
      vertex 13.8532 21 12.0729
      vertex 12.5637 21 11.753
      vertex 12.9499 21 13.445
    endloop
  endfacet
  facet normal 0 1 -0
    outer loop
      vertex 12.7634 21 10.5729
      vertex 12.5637 21 11.753
      vertex 13.8532 21 12.0729
    endloop
  endfacet
  facet normal 0 1 0
    outer loop
      vertex 12.5637 21 11.753
      vertex 12.7634 21 10.5729
      vertex 11 21 11
    endloop
  endfacet
  facet normal 0 1 0
    outer loop
      vertex 11 21 16
      vertex 10.1322 21 14.8019
      vertex 9.23664 21 15.4271
    endloop
  endfacet
  facet normal 0 1 0
    outer loop
      vertex 9.05014 21 13.445
      vertex 9.23664 21 15.4271
      vertex 10.1322 21 14.8019
    endloop
  endfacet
  facet normal 0 1 0
    outer loop
      vertex 9.23664 21 15.4271
      vertex 9.05014 21 13.445
      vertex 8.14683 21 13.9271
    endloop
  endfacet
  facet normal 0 1 0
    outer loop
      vertex 9.05014 21 13.445
      vertex 8.14683 21 12.0729
      vertex 8.14683 21 13.9271
    endloop
  endfacet
  facet normal 0 1 0
    outer loop
      vertex 9.43634 21 11.753
      vertex 8.14683 21 12.0729
      vertex 9.05014 21 13.445
    endloop
  endfacet
  facet normal 0 1 0
    outer loop
      vertex 9.23664 21 10.5729
      vertex 9.43634 21 11.753
      vertex 11 21 11
    endloop
  endfacet
  facet normal 0 1 0
    outer loop
      vertex 9.43634 21 11.753
      vertex 9.23664 21 10.5729
      vertex 8.14683 21 12.0729
    endloop
  endfacet
  facet normal 0 1 0
    outer loop
      vertex 11 21 10
      vertex 11 21 11
      vertex 12.7634 21 10.5729
    endloop
  endfacet
  facet normal 0 1 0
    outer loop
      vertex 11 21 11
      vertex 11 21 10
      vertex 9.23664 21 10.5729
    endloop
  endfacet
  facet normal 0.308992 0 -0.951065
    outer loop
      vertex 9.23664 21 15.4271
      vertex 11 35 16
      vertex 11 21 16
    endloop
  endfacet
  facet normal 0.308992 0 -0.951065
    outer loop
      vertex 11 35 16
      vertex 9.23664 21 15.4271
      vertex 9.23664 35 15.4271
    endloop
  endfacet
  facet normal 1 -0 0
    outer loop
      vertex 8.14683 21 13.9271
      vertex 8.14683 35 12.0729
      vertex 8.14683 35 13.9271
    endloop
  endfacet
  facet normal 1 0 0
    outer loop
      vertex 8.14683 35 12.0729
      vertex 8.14683 21 13.9271
      vertex 8.14683 21 12.0729
    endloop
  endfacet
  facet normal -0.809021 0 0.58778
    outer loop
      vertex 12.7634 21 10.5729
      vertex 13.8532 35 12.0729
      vertex 12.7634 35 10.5729
    endloop
  endfacet
  facet normal -0.809021 0 0.58778
    outer loop
      vertex 13.8532 35 12.0729
      vertex 12.7634 21 10.5729
      vertex 13.8532 21 12.0729
    endloop
  endfacet
  facet normal -0.308986 0 -0.951067
    outer loop
      vertex 11 21 16
      vertex 12.7634 35 15.4271
      vertex 12.7634 21 15.4271
    endloop
  endfacet
  facet normal -0.308986 0 -0.951067
    outer loop
      vertex 12.7634 35 15.4271
      vertex 11 21 16
      vertex 11 35 16
    endloop
  endfacet
  facet normal 1 -0 0
    outer loop
      vertex 136 0 143
      vertex 136 35 0
      vertex 136 35 143
    endloop
  endfacet
  facet normal 1 0 0
    outer loop
      vertex 136 35 0
      vertex 136 0 143
      vertex 136 0 0
    endloop
  endfacet
  facet normal 0 0 1
    outer loop
      vertex 136 35 143
      vertex 133 18 143
      vertex 136 0 143
    endloop
  endfacet
  facet normal 0 0 1
    outer loop
      vertex 136 35 143
      vertex 118 32 143
      vertex 133 18 143
    endloop
  endfacet
  facet normal -0 0 1
    outer loop
      vertex 68.1 35 143
      vertex 118 32 143
      vertex 136 35 143
    endloop
  endfacet
  facet normal 0 0 1
    outer loop
      vertex 118 32 143
      vertex 68.1 35 143
      vertex 68.1 32 143
    endloop
  endfacet
  facet normal -0 0 1
    outer loop
      vertex 133 2 143
      vertex 136 0 143
      vertex 133 18 143
    endloop
  endfacet
  facet normal 0 0 1
    outer loop
      vertex 131 0 143
      vertex 133 2 143
      vertex 131 2 143
    endloop
  endfacet
  facet normal 0 0 1
    outer loop
      vertex 133 2 143
      vertex 131 0 143
      vertex 136 0 143
    endloop
  endfacet
  facet normal 0 0 1
    outer loop
      vertex 133 18 143
      vertex 118 32 143
      vertex 118 18 143
    endloop
  endfacet
  facet normal 0 0 -1
    outer loop
      vertex 136 0 0
      vertex 102.5 22 0
      vertex 136 35 0
    endloop
  endfacet
  facet normal 0 0 -1
    outer loop
      vertex 136 0 0
      vertex 102.042 20.1411 0
      vertex 102.5 22 0
    endloop
  endfacet
  facet normal 0 0 -1
    outer loop
      vertex 136 0 0
      vertex 100.772 18.7081 0
      vertex 102.042 20.1411 0
    endloop
  endfacet
  facet normal 0 0 -1
    outer loop
      vertex 136 0 0
      vertex 98.9821 18.0292 0
      vertex 100.772 18.7081 0
    endloop
  endfacet
  facet normal 0 0 -1
    outer loop
      vertex 90.5 18 0
      vertex 98.9821 18.0292 0
      vertex 136 0 0
    endloop
  endfacet
  facet normal -0 0 -1
    outer loop
      vertex 94.6162 21.0427 0
      vertex 90.5 18 0
      vertex 94.6162 22.9573 0
    endloop
  endfacet
  facet normal -0 0 -1
    outer loop
      vertex 95.506 19.3475 0
      vertex 90.5 18 0
      vertex 94.6162 21.0427 0
    endloop
  endfacet
  facet normal -0 0 -1
    outer loop
      vertex 97.0816 18.2599 0
      vertex 90.5 18 0
      vertex 95.506 19.3475 0
    endloop
  endfacet
  facet normal -0 0 -1
    outer loop
      vertex 98.9821 18.0292 0
      vertex 90.5 18 0
      vertex 97.0816 18.2599 0
    endloop
  endfacet
  facet normal 0 0 -1
    outer loop
      vertex 136 0 0
      vertex 45.5 18 0
      vertex 90.5 18 0
    endloop
  endfacet
  facet normal 0 0 -1
    outer loop
      vertex 45.5 18 0
      vertex 41.5 22 0
      vertex 45.5 26 0
    endloop
  endfacet
  facet normal 0 0 -1
    outer loop
      vertex 45.5 18 0
      vertex 41.0418 20.1411 0
      vertex 41.5 22 0
    endloop
  endfacet
  facet normal 0 0 -1
    outer loop
      vertex 45.5 18 0
      vertex 39.7723 18.7081 0
      vertex 41.0418 20.1411 0
    endloop
  endfacet
  facet normal 0 0 -1
    outer loop
      vertex 0 0 0
      vertex 45.5 18 0
      vertex 136 0 0
    endloop
  endfacet
  facet normal 0 0 -1
    outer loop
      vertex 45.5 18 0
      vertex 37.9821 18.0292 0
      vertex 39.7723 18.7081 0
    endloop
  endfacet
  facet normal -0 0 -1
    outer loop
      vertex 45.5 18 0
      vertex 0 0 0
      vertex 37.9821 18.0292 0
    endloop
  endfacet
  facet normal 0 0 -1
    outer loop
      vertex 0 35 0
      vertex 33.6162 21.0427 0
      vertex 0 0 0
    endloop
  endfacet
  facet normal -0 0 -1
    outer loop
      vertex 34.506 19.3475 0
      vertex 0 0 0
      vertex 33.6162 21.0427 0
    endloop
  endfacet
  facet normal -0 0 -1
    outer loop
      vertex 36.0816 18.2599 0
      vertex 0 0 0
      vertex 34.506 19.3475 0
    endloop
  endfacet
  facet normal -0 0 -1
    outer loop
      vertex 37.9821 18.0292 0
      vertex 0 0 0
      vertex 36.0816 18.2599 0
    endloop
  endfacet
  facet normal 0 0 -1
    outer loop
      vertex 102.042 23.8589 0
      vertex 136 35 0
      vertex 102.5 22 0
    endloop
  endfacet
  facet normal 0 0 -1
    outer loop
      vertex 100.772 25.2919 0
      vertex 136 35 0
      vertex 102.042 23.8589 0
    endloop
  endfacet
  facet normal 0 0 -1
    outer loop
      vertex 98.9821 25.9708 0
      vertex 136 35 0
      vertex 100.772 25.2919 0
    endloop
  endfacet
  facet normal 0 0 -1
    outer loop
      vertex 90.5 26 0
      vertex 98.9821 25.9708 0
      vertex 97.0816 25.7401 0
    endloop
  endfacet
  facet normal 0 0 -1
    outer loop
      vertex 90.5 26 0
      vertex 94.6162 22.9573 0
      vertex 90.5 18 0
    endloop
  endfacet
  facet normal 0 0 -1
    outer loop
      vertex 94.6162 22.9573 0
      vertex 90.5 26 0
      vertex 95.506 24.6525 0
    endloop
  endfacet
  facet normal 0 0 -1
    outer loop
      vertex 90.5 26 0
      vertex 97.0816 25.7401 0
      vertex 95.506 24.6525 0
    endloop
  endfacet
  facet normal 0 0 -1
    outer loop
      vertex 98.9821 25.9708 0
      vertex 90.5 26 0
      vertex 136 35 0
    endloop
  endfacet
  facet normal 0 0 -1
    outer loop
      vertex 45.5 26 0
      vertex 136 35 0
      vertex 90.5 26 0
    endloop
  endfacet
  facet normal 0 0 -1
    outer loop
      vertex 41.0418 23.8589 0
      vertex 45.5 26 0
      vertex 41.5 22 0
    endloop
  endfacet
  facet normal 0 0 -1
    outer loop
      vertex 39.7723 25.2919 0
      vertex 45.5 26 0
      vertex 41.0418 23.8589 0
    endloop
  endfacet
  facet normal 0 0 -1
    outer loop
      vertex 37.9821 25.9708 0
      vertex 45.5 26 0
      vertex 39.7723 25.2919 0
    endloop
  endfacet
  facet normal 0 0 -1
    outer loop
      vertex 0 35 0
      vertex 45.5 26 0
      vertex 37.9821 25.9708 0
    endloop
  endfacet
  facet normal 0 0 -1
    outer loop
      vertex 33.6162 21.0427 0
      vertex 0 35 0
      vertex 33.6162 22.9573 0
    endloop
  endfacet
  facet normal 0 0 -1
    outer loop
      vertex 45.5 26 0
      vertex 0 35 0
      vertex 136 35 0
    endloop
  endfacet
  facet normal 0 0 -1
    outer loop
      vertex 36.0816 25.7401 0
      vertex 0 35 0
      vertex 37.9821 25.9708 0
    endloop
  endfacet
  facet normal 0 0 -1
    outer loop
      vertex 34.506 24.6525 0
      vertex 0 35 0
      vertex 36.0816 25.7401 0
    endloop
  endfacet
  facet normal 0 0 -1
    outer loop
      vertex 33.6162 22.9573 0
      vertex 0 35 0
      vertex 34.506 24.6525 0
    endloop
  endfacet
  facet normal -1 0 0
    outer loop
      vertex 0 0 0
      vertex 0 35 122.9
      vertex 0 35 0
    endloop
  endfacet
  facet normal -1 -0 0
    outer loop
      vertex 0 35 122.9
      vertex 0 0 0
      vertex 0 0 122.9
    endloop
  endfacet
  facet normal 0 1 -0
    outer loop
      vertex 33.9 35 15.4788
      vertex 29.0503 35 20.4286
      vertex 33.9 35 15.5788
    endloop
  endfacet
  facet normal 0 1 0
    outer loop
      vertex 13.8532 35 12.0729
      vertex 29.0503 35 20.4286
      vertex 33.9 35 15.4788
    endloop
  endfacet
  facet normal 0 1 0
    outer loop
      vertex 29.0503 35 20.4286
      vertex 12.7634 35 15.4271
      vertex 11 35 16
    endloop
  endfacet
  facet normal 0 1 0
    outer loop
      vertex 102 35 15.4788
      vertex 121.237 35 10.5729
      vertex 101.9 35 15.4788
    endloop
  endfacet
  facet normal 0 1 0
    outer loop
      vertex 136 35 0
      vertex 101.9 35 15.4788
      vertex 121.237 35 10.5729
    endloop
  endfacet
  facet normal 0 1 0
    outer loop
      vertex 29.0503 35 20.4286
      vertex 13.8532 35 13.9271
      vertex 12.7634 35 15.4271
    endloop
  endfacet
  facet normal 0 1 0
    outer loop
      vertex 101.9 35 15.4788
      vertex 136 35 0
      vertex 34 35 15.4788
    endloop
  endfacet
  facet normal 0 1 0
    outer loop
      vertex 29.0503 35 20.4286
      vertex 13.8532 35 12.0729
      vertex 13.8532 35 13.9271
    endloop
  endfacet
  facet normal 0 1 0
    outer loop
      vertex 0 35 0
      vertex 34 35 15.4788
      vertex 136 35 0
    endloop
  endfacet
  facet normal 0 1 0
    outer loop
      vertex 33.9 35 15.4788
      vertex 12.7634 35 10.5729
      vertex 13.8532 35 12.0729
    endloop
  endfacet
  facet normal 0 1 0
    outer loop
      vertex 136 35 0
      vertex 121.237 35 10.5729
      vertex 123 35 10
    endloop
  endfacet
  facet normal 0 1 0
    outer loop
      vertex 33.9 35 15.4788
      vertex 0 35 0
      vertex 12.7634 35 10.5729
    endloop
  endfacet
  facet normal 0 1 0
    outer loop
      vertex 34 35 25.3783
      vertex 33.95 35 25.3283
      vertex 33.9 35 25.3783
    endloop
  endfacet
  facet normal 0 1 0
    outer loop
      vertex 97.0503 35 20.4286
      vertex 101.9 35 25.3783
      vertex 101.9 35 25.2783
    endloop
  endfacet
  facet normal 0 1 0
    outer loop
      vertex 101.9 35 25.3783
      vertex 97.0503 35 20.4286
      vertex 34 35 25.3783
    endloop
  endfacet
  facet normal 0 1 -0
    outer loop
      vertex 38.8497 35 20.4286
      vertex 34 35 25.3783
      vertex 97.0503 35 20.4286
    endloop
  endfacet
  facet normal 0 1 0
    outer loop
      vertex 34 35 25.3783
      vertex 38.8497 35 20.4286
      vertex 34 35 25.2783
    endloop
  endfacet
  facet normal 0 1 -0
    outer loop
      vertex 101.9 35 15.4788
      vertex 97.0503 35 20.4286
      vertex 101.9 35 15.5788
    endloop
  endfacet
  facet normal 0 1 0
    outer loop
      vertex 97.0503 35 20.4286
      vertex 101.9 35 15.4788
      vertex 38.8497 35 20.4286
    endloop
  endfacet
  facet normal 0 1 0
    outer loop
      vertex 34 35 15.4788
      vertex 38.8497 35 20.4286
      vertex 101.9 35 15.4788
    endloop
  endfacet
  facet normal 0 1 0
    outer loop
      vertex 38.8497 35 20.4286
      vertex 34 35 15.4788
      vertex 34 35 15.5788
    endloop
  endfacet
  facet normal 0 1 0
    outer loop
      vertex 102 35 25.3783
      vertex 101.95 35 25.3283
      vertex 101.9 35 25.3783
    endloop
  endfacet
  facet normal 0 1 0
    outer loop
      vertex 121.237 35 135.427
      vertex 136 35 143
      vertex 123 35 136
    endloop
  endfacet
  facet normal 0 1 0
    outer loop
      vertex 136 35 143
      vertex 124.763 35 135.427
      vertex 123 35 136
    endloop
  endfacet
  facet normal 0 1 0
    outer loop
      vertex 136 35 143
      vertex 125.853 35 133.927
      vertex 124.763 35 135.427
    endloop
  endfacet
  facet normal 0 1 0
    outer loop
      vertex 136 35 143
      vertex 125.853 35 132.073
      vertex 125.853 35 133.927
    endloop
  endfacet
  facet normal 0 1 0
    outer loop
      vertex 136 35 143
      vertex 124.763 35 130.573
      vertex 125.853 35 132.073
    endloop
  endfacet
  facet normal 0 1 -0
    outer loop
      vertex 101.9 35 25.3783
      vertex 68.1 35 122.9
      vertex 102 35 25.3783
    endloop
  endfacet
  facet normal 0 1 0
    outer loop
      vertex 121.237 35 130.573
      vertex 102 35 25.3783
      vertex 68.1 35 122.9
    endloop
  endfacet
  facet normal 0 1 0
    outer loop
      vertex 123 35 16
      vertex 123 35 130
      vertex 124.763 35 130.573
    endloop
  endfacet
  facet normal 0 1 0
    outer loop
      vertex 124.763 35 15.4271
      vertex 124.763 35 130.573
      vertex 136 35 143
    endloop
  endfacet
  facet normal 0 1 0
    outer loop
      vertex 123 35 130
      vertex 123 35 16
      vertex 102 35 25.3783
    endloop
  endfacet
  facet normal -0 1 -0
    outer loop
      vertex 106.85 35 20.4286
      vertex 102 35 25.3783
      vertex 123 35 16
    endloop
  endfacet
  facet normal 0 1 0
    outer loop
      vertex 102 35 25.3783
      vertex 106.85 35 20.4286
      vertex 102 35 25.2783
    endloop
  endfacet
  facet normal 0 1 0
    outer loop
      vertex 124.763 35 130.573
      vertex 124.763 35 15.4271
      vertex 123 35 16
    endloop
  endfacet
  facet normal 0 1 0
    outer loop
      vertex 136 35 143
      vertex 125.853 35 13.9271
      vertex 124.763 35 15.4271
    endloop
  endfacet
  facet normal 0 1 -0
    outer loop
      vertex 136 35 0
      vertex 125.853 35 13.9271
      vertex 136 35 143
    endloop
  endfacet
  facet normal 0 1 0
    outer loop
      vertex 34 35 15.4788
      vertex 0 35 0
      vertex 33.9 35 15.4788
    endloop
  endfacet
  facet normal 0 1 0
    outer loop
      vertex 124.763 35 10.5729
      vertex 136 35 0
      vertex 123 35 10
    endloop
  endfacet
  facet normal 0 1 0
    outer loop
      vertex 125.853 35 12.0729
      vertex 136 35 0
      vertex 124.763 35 10.5729
    endloop
  endfacet
  facet normal 0 1 0
    outer loop
      vertex 125.853 35 13.9271
      vertex 136 35 0
      vertex 125.853 35 12.0729
    endloop
  endfacet
  facet normal 0 1 0
    outer loop
      vertex 136 35 143
      vertex 121.237 35 135.427
      vertex 68.1 35 143
    endloop
  endfacet
  facet normal 0 1 -0
    outer loop
      vertex 120.147 35 133.927
      vertex 68.1 35 143
      vertex 121.237 35 135.427
    endloop
  endfacet
  facet normal 0 1 -0
    outer loop
      vertex 120.147 35 132.073
      vertex 68.1 35 143
      vertex 120.147 35 133.927
    endloop
  endfacet
  facet normal 0 1 0
    outer loop
      vertex 68.1 35 122.9
      vertex 120.147 35 132.073
      vertex 121.237 35 130.573
    endloop
  endfacet
  facet normal 0 1 0
    outer loop
      vertex 102 35 25.3783
      vertex 121.237 35 130.573
      vertex 123 35 130
    endloop
  endfacet
  facet normal 0 1 0
    outer loop
      vertex 120.147 35 132.073
      vertex 68.1 35 122.9
      vertex 68.1 35 143
    endloop
  endfacet
  facet normal 0 1 0
    outer loop
      vertex 34 35 25.3783
      vertex 68.1 35 122.9
      vertex 101.9 35 25.3783
    endloop
  endfacet
  facet normal 0 1 0
    outer loop
      vertex 68.1 35 122.9
      vertex 34 35 25.3783
      vertex 0 35 122.9
    endloop
  endfacet
  facet normal 0 1 -0
    outer loop
      vertex 33.9 35 25.3783
      vertex 0 35 122.9
      vertex 34 35 25.3783
    endloop
  endfacet
  facet normal 0 1 0
    outer loop
      vertex 29.0503 35 20.4286
      vertex 33.9 35 25.3783
      vertex 33.9 35 25.2783
    endloop
  endfacet
  facet normal 0 1 0
    outer loop
      vertex 33.9 35 25.3783
      vertex 29.0503 35 20.4286
      vertex 11 35 16
    endloop
  endfacet
  facet normal 0 1 0
    outer loop
      vertex 33.9 35 25.3783
      vertex 11 35 16
      vertex 0 35 122.9
    endloop
  endfacet
  facet normal 0 1 -0
    outer loop
      vertex 9.23664 35 15.4271
      vertex 0 35 122.9
      vertex 11 35 16
    endloop
  endfacet
  facet normal 0 1 -0
    outer loop
      vertex 8.14683 35 13.9271
      vertex 0 35 122.9
      vertex 9.23664 35 15.4271
    endloop
  endfacet
  facet normal 0 1 0
    outer loop
      vertex 0 35 0
      vertex 8.14683 35 13.9271
      vertex 8.14683 35 12.0729
    endloop
  endfacet
  facet normal 0 1 0
    outer loop
      vertex 8.14683 35 13.9271
      vertex 0 35 0
      vertex 0 35 122.9
    endloop
  endfacet
  facet normal 0 1 0
    outer loop
      vertex 9.23664 35 10.5729
      vertex 0 35 0
      vertex 8.14683 35 12.0729
    endloop
  endfacet
  facet normal 0 1 0
    outer loop
      vertex 11 35 10
      vertex 0 35 0
      vertex 9.23664 35 10.5729
    endloop
  endfacet
  facet normal 0 1 0
    outer loop
      vertex 12.7634 35 10.5729
      vertex 0 35 0
      vertex 11 35 10
    endloop
  endfacet
  facet normal 0 1 -0
    outer loop
      vertex 121.237 35 15.4271
      vertex 106.85 35 20.4286
      vertex 123 35 16
    endloop
  endfacet
  facet normal 0 1 -0
    outer loop
      vertex 120.147 35 13.9271
      vertex 106.85 35 20.4286
      vertex 121.237 35 15.4271
    endloop
  endfacet
  facet normal 0 1 0
    outer loop
      vertex 106.85 35 20.4286
      vertex 120.147 35 12.0729
      vertex 102 35 15.4788
    endloop
  endfacet
  facet normal 0 1 0
    outer loop
      vertex 121.237 35 10.5729
      vertex 102 35 15.4788
      vertex 120.147 35 12.0729
    endloop
  endfacet
  facet normal 0 1 -0
    outer loop
      vertex 120.147 35 12.0729
      vertex 106.85 35 20.4286
      vertex 120.147 35 13.9271
    endloop
  endfacet
  facet normal 0 1 0
    outer loop
      vertex 106.85 35 20.4286
      vertex 102 35 15.4788
      vertex 102 35 15.5788
    endloop
  endfacet
  facet normal 0 1 0
    outer loop
      vertex 101.95 35 15.5288
      vertex 102 35 15.4788
      vertex 101.9 35 15.4788
    endloop
  endfacet
  facet normal 0 1 0
    outer loop
      vertex 33.95 35 15.5288
      vertex 34 35 15.4788
      vertex 33.9 35 15.4788
    endloop
  endfacet
  facet normal 0 -1 0
    outer loop
      vertex 0 0 122.9
      vertex 5 0 5
      vertex 5 0 122.9
    endloop
  endfacet
  facet normal 0 -1 -0
    outer loop
      vertex 5 0 5
      vertex 0 0 0
      vertex 131 0 5
    endloop
  endfacet
  facet normal 0 -1 0
    outer loop
      vertex 0 0 0
      vertex 5 0 5
      vertex 0 0 122.9
    endloop
  endfacet
  facet normal 0 -1 0
    outer loop
      vertex 131 0 5
      vertex 136 0 143
      vertex 131 0 143
    endloop
  endfacet
  facet normal 0 -1 0
    outer loop
      vertex 131 0 5
      vertex 136 0 0
      vertex 136 0 143
    endloop
  endfacet
  facet normal 0 -1 0
    outer loop
      vertex 136 0 0
      vertex 131 0 5
      vertex 0 0 0
    endloop
  endfacet
  facet normal -1 0 0
    outer loop
      vertex 68.1 32 122.9
      vertex 68.1 35 143
      vertex 68.1 35 122.9
    endloop
  endfacet
  facet normal -1 -0 0
    outer loop
      vertex 68.1 35 143
      vertex 68.1 32 122.9
      vertex 68.1 32 143
    endloop
  endfacet
  facet normal 0 0 1
    outer loop
      vertex 68.1 35 122.9
      vertex 11 32 122.9
      vertex 68.1 32 122.9
    endloop
  endfacet
  facet normal 0 0 1
    outer loop
      vertex 11 32 122.9
      vertex 3 18 122.9
      vertex 11 18 122.9
    endloop
  endfacet
  facet normal 0 0 1
    outer loop
      vertex 0 0 122.9
      vertex 3 18 122.9
      vertex 0 35 122.9
    endloop
  endfacet
  facet normal 0 0 1
    outer loop
      vertex 11 32 122.9
      vertex 0 35 122.9
      vertex 3 18 122.9
    endloop
  endfacet
  facet normal -0 0 1
    outer loop
      vertex 0 35 122.9
      vertex 11 32 122.9
      vertex 68.1 35 122.9
    endloop
  endfacet
  facet normal -0 0 1
    outer loop
      vertex 3 2 122.9
      vertex 5 0 122.9
      vertex 5 2 122.9
    endloop
  endfacet
  facet normal 0 0 1
    outer loop
      vertex 3 2 122.9
      vertex 0 0 122.9
      vertex 5 0 122.9
    endloop
  endfacet
  facet normal 0 0 1
    outer loop
      vertex 3 18 122.9
      vertex 0 0 122.9
      vertex 3 2 122.9
    endloop
  endfacet
  facet normal -1 0 0
    outer loop
      vertex 133 2 3
      vertex 133 18 143
      vertex 133 18 3
    endloop
  endfacet
  facet normal -1 -0 0
    outer loop
      vertex 133 18 143
      vertex 133 2 3
      vertex 133 2 143
    endloop
  endfacet
  facet normal 0 0 1
    outer loop
      vertex 118 32 3
      vertex 102.5 22 3
      vertex 118 18 3
    endloop
  endfacet
  facet normal 0 0 1
    outer loop
      vertex 118 32 3
      vertex 102.042 23.8589 3
      vertex 102.5 22 3
    endloop
  endfacet
  facet normal 0 0 1
    outer loop
      vertex 118 32 3
      vertex 100.772 25.2919 3
      vertex 102.042 23.8589 3
    endloop
  endfacet
  facet normal 0 0 1
    outer loop
      vertex 118 32 3
      vertex 98.9821 25.9708 3
      vertex 100.772 25.2919 3
    endloop
  endfacet
  facet normal -0 0 1
    outer loop
      vertex 90.5 26 3
      vertex 98.9821 25.9708 3
      vertex 118 32 3
    endloop
  endfacet
  facet normal 0 0 1
    outer loop
      vertex 94.6162 22.9573 3
      vertex 90.5 26 3
      vertex 94.6162 21.0427 3
    endloop
  endfacet
  facet normal 0 0 1
    outer loop
      vertex 95.506 24.6525 3
      vertex 90.5 26 3
      vertex 94.6162 22.9573 3
    endloop
  endfacet
  facet normal 0 0 1
    outer loop
      vertex 97.0816 25.7401 3
      vertex 90.5 26 3
      vertex 95.506 24.6525 3
    endloop
  endfacet
  facet normal 0 0 1
    outer loop
      vertex 98.9821 25.9708 3
      vertex 90.5 26 3
      vertex 97.0816 25.7401 3
    endloop
  endfacet
  facet normal 0 0 1
    outer loop
      vertex 118 32 3
      vertex 45.5 26 3
      vertex 90.5 26 3
    endloop
  endfacet
  facet normal 0 0 1
    outer loop
      vertex 45.5 26 3
      vertex 41.5 22 3
      vertex 45.5 18 3
    endloop
  endfacet
  facet normal 0 0 1
    outer loop
      vertex 45.5 26 3
      vertex 41.0418 23.8589 3
      vertex 41.5 22 3
    endloop
  endfacet
  facet normal 0 0 1
    outer loop
      vertex 45.5 26 3
      vertex 39.7723 25.2919 3
      vertex 41.0418 23.8589 3
    endloop
  endfacet
  facet normal 0 0 1
    outer loop
      vertex 45.5 26 3
      vertex 37.9821 25.9708 3
      vertex 39.7723 25.2919 3
    endloop
  endfacet
  facet normal -0 0 1
    outer loop
      vertex 18 32 3
      vertex 45.5 26 3
      vertex 118 32 3
    endloop
  endfacet
  facet normal 0 0 1
    outer loop
      vertex 18 18 3
      vertex 33.6162 22.9573 3
      vertex 18 32 3
    endloop
  endfacet
  facet normal 0 0 1
    outer loop
      vertex 34.506 24.6525 3
      vertex 18 32 3
      vertex 33.6162 22.9573 3
    endloop
  endfacet
  facet normal 0 0 1
    outer loop
      vertex 36.0816 25.7401 3
      vertex 18 32 3
      vertex 34.506 24.6525 3
    endloop
  endfacet
  facet normal 0 0 1
    outer loop
      vertex 37.9821 25.9708 3
      vertex 18 32 3
      vertex 36.0816 25.7401 3
    endloop
  endfacet
  facet normal 0 0 1
    outer loop
      vertex 45.5 26 3
      vertex 18 32 3
      vertex 37.9821 25.9708 3
    endloop
  endfacet
  facet normal -0 0 1
    outer loop
      vertex 118 18 3
      vertex 133 2 3
      vertex 133 18 3
    endloop
  endfacet
  facet normal -0 0 1
    outer loop
      vertex 102.042 20.1411 3
      vertex 118 18 3
      vertex 102.5 22 3
    endloop
  endfacet
  facet normal -0 0 1
    outer loop
      vertex 100.772 18.7081 3
      vertex 118 18 3
      vertex 102.042 20.1411 3
    endloop
  endfacet
  facet normal -0 0 1
    outer loop
      vertex 98.9821 18.0292 3
      vertex 118 18 3
      vertex 100.772 18.7081 3
    endloop
  endfacet
  facet normal 0 0 1
    outer loop
      vertex 118 18 3
      vertex 98.9821 18.0292 3
      vertex 133 2 3
    endloop
  endfacet
  facet normal 0 0 1
    outer loop
      vertex 90.5 18 3
      vertex 98.9821 18.0292 3
      vertex 97.0816 18.2599 3
    endloop
  endfacet
  facet normal 0 0 1
    outer loop
      vertex 90.5 18 3
      vertex 94.6162 21.0427 3
      vertex 90.5 26 3
    endloop
  endfacet
  facet normal 0 0 1
    outer loop
      vertex 94.6162 21.0427 3
      vertex 90.5 18 3
      vertex 95.506 19.3475 3
    endloop
  endfacet
  facet normal 0 0 1
    outer loop
      vertex 90.5 18 3
      vertex 97.0816 18.2599 3
      vertex 95.506 19.3475 3
    endloop
  endfacet
  facet normal 0 0 1
    outer loop
      vertex 98.9821 18.0292 3
      vertex 90.5 18 3
      vertex 133 2 3
    endloop
  endfacet
  facet normal -0 0 1
    outer loop
      vertex 45.5 18 3
      vertex 133 2 3
      vertex 90.5 18 3
    endloop
  endfacet
  facet normal -0 0 1
    outer loop
      vertex 41.0418 20.1411 3
      vertex 45.5 18 3
      vertex 41.5 22 3
    endloop
  endfacet
  facet normal -0 0 1
    outer loop
      vertex 39.7723 18.7081 3
      vertex 45.5 18 3
      vertex 41.0418 20.1411 3
    endloop
  endfacet
  facet normal -0 0 1
    outer loop
      vertex 37.9821 18.0292 3
      vertex 45.5 18 3
      vertex 39.7723 18.7081 3
    endloop
  endfacet
  facet normal 0 0 1
    outer loop
      vertex 3 2 3
      vertex 45.5 18 3
      vertex 37.9821 18.0292 3
    endloop
  endfacet
  facet normal 0 0 1
    outer loop
      vertex 3 2 3
      vertex 37.9821 18.0292 3
      vertex 36.0816 18.2599 3
    endloop
  endfacet
  facet normal 0 0 1
    outer loop
      vertex 33.6162 22.9573 3
      vertex 18 18 3
      vertex 33.6162 21.0427 3
    endloop
  endfacet
  facet normal 0 0 1
    outer loop
      vertex 33.6162 21.0427 3
      vertex 18 18 3
      vertex 34.506 19.3475 3
    endloop
  endfacet
  facet normal 0 0 1
    outer loop
      vertex 18 18 3
      vertex 36.0816 18.2599 3
      vertex 34.506 19.3475 3
    endloop
  endfacet
  facet normal 0 0 1
    outer loop
      vertex 3 2 3
      vertex 36.0816 18.2599 3
      vertex 18 18 3
    endloop
  endfacet
  facet normal 0 0 1
    outer loop
      vertex 3 2 3
      vertex 18 18 3
      vertex 3 18 3
    endloop
  endfacet
  facet normal 0 0 1
    outer loop
      vertex 45.5 18 3
      vertex 3 2 3
      vertex 133 2 3
    endloop
  endfacet
  facet normal 1 -0 0
    outer loop
      vertex 3 2 122.9
      vertex 3 18 3
      vertex 3 18 122.9
    endloop
  endfacet
  facet normal 1 0 0
    outer loop
      vertex 3 18 3
      vertex 3 2 122.9
      vertex 3 2 3
    endloop
  endfacet
  facet normal 0 -1 0
    outer loop
      vertex 123.868 18 134.802
      vertex 118 18 143
      vertex 122.132 18 134.802
    endloop
  endfacet
  facet normal 0 -1 0
    outer loop
      vertex 118 18 143
      vertex 121.05 18 133.445
      vertex 122.132 18 134.802
    endloop
  endfacet
  facet normal 0 -1 0
    outer loop
      vertex 118 18 143
      vertex 121.436 18 131.753
      vertex 121.05 18 133.445
    endloop
  endfacet
  facet normal 0 -1 0
    outer loop
      vertex 121.436 18 131.753
      vertex 122.132 18 14.8019
      vertex 123 18 131
    endloop
  endfacet
  facet normal 0 -1 0
    outer loop
      vertex 121.05 18 13.445
      vertex 121.436 18 131.753
      vertex 118 18 143
    endloop
  endfacet
  facet normal 0 -1 -0
    outer loop
      vertex 121.436 18 131.753
      vertex 121.05 18 13.445
      vertex 122.132 18 14.8019
    endloop
  endfacet
  facet normal 0 -1 -0
    outer loop
      vertex 121.436 18 11.753
      vertex 118 18 3
      vertex 123 18 11
    endloop
  endfacet
  facet normal 0 -1 -0
    outer loop
      vertex 121.05 18 13.445
      vertex 118 18 3
      vertex 121.436 18 11.753
    endloop
  endfacet
  facet normal 0 -1 0
    outer loop
      vertex 118 18 3
      vertex 121.05 18 13.445
      vertex 118 18 143
    endloop
  endfacet
  facet normal 0 -1 0
    outer loop
      vertex 118 18 143
      vertex 123.868 18 134.802
      vertex 133 18 143
    endloop
  endfacet
  facet normal 0 -1 0
    outer loop
      vertex 124.95 18 133.445
      vertex 133 18 143
      vertex 123.868 18 134.802
    endloop
  endfacet
  facet normal 0 -1 0
    outer loop
      vertex 124.564 18 131.753
      vertex 133 18 143
      vertex 124.95 18 133.445
    endloop
  endfacet
  facet normal 0 -1 0
    outer loop
      vertex 123.868 18 14.8019
      vertex 123 18 131
      vertex 122.132 18 14.8019
    endloop
  endfacet
  facet normal 0 -1 0
    outer loop
      vertex 123 18 131
      vertex 123.868 18 14.8019
      vertex 124.564 18 131.753
    endloop
  endfacet
  facet normal 0 -1 0
    outer loop
      vertex 124.95 18 13.445
      vertex 124.564 18 131.753
      vertex 123.868 18 14.8019
    endloop
  endfacet
  facet normal 0 -1 0
    outer loop
      vertex 124.564 18 131.753
      vertex 124.95 18 13.445
      vertex 133 18 143
    endloop
  endfacet
  facet normal 0 -1 0
    outer loop
      vertex 133 18 3
      vertex 123 18 11
      vertex 118 18 3
    endloop
  endfacet
  facet normal 0 -1 0
    outer loop
      vertex 124.95 18 13.445
      vertex 133 18 3
      vertex 133 18 143
    endloop
  endfacet
  facet normal 0 -1 0
    outer loop
      vertex 124.564 18 11.753
      vertex 133 18 3
      vertex 124.95 18 13.445
    endloop
  endfacet
  facet normal 0 -1 0
    outer loop
      vertex 123 18 11
      vertex 133 18 3
      vertex 124.564 18 11.753
    endloop
  endfacet
  facet normal 0 -1 0
    outer loop
      vertex 3 18 122.9
      vertex 11 18 18
      vertex 11 18 122.9
    endloop
  endfacet
  facet normal 0 -1 0
    outer loop
      vertex 11.8678 18 14.8019
      vertex 11 18 18
      vertex 10.1322 18 14.8019
    endloop
  endfacet
  facet normal 0 -1 0
    outer loop
      vertex 3 18 3
      vertex 11 18 18
      vertex 3 18 122.9
    endloop
  endfacet
  facet normal 0 -1 0
    outer loop
      vertex 11 18 18
      vertex 9.05014 18 13.445
      vertex 10.1322 18 14.8019
    endloop
  endfacet
  facet normal 0 -1 -0
    outer loop
      vertex 9.43634 18 11.753
      vertex 3 18 3
      vertex 11 18 11
    endloop
  endfacet
  facet normal 0 -1 -0
    outer loop
      vertex 9.05014 18 13.445
      vertex 3 18 3
      vertex 9.43634 18 11.753
    endloop
  endfacet
  facet normal 0 -1 0
    outer loop
      vertex 11 18 18
      vertex 3 18 3
      vertex 9.05014 18 13.445
    endloop
  endfacet
  facet normal 0 -1 0
    outer loop
      vertex 11 18 18
      vertex 11.8678 18 14.8019
      vertex 18 18 18
    endloop
  endfacet
  facet normal 0 -1 0
    outer loop
      vertex 12.9499 18 13.445
      vertex 18 18 18
      vertex 11.8678 18 14.8019
    endloop
  endfacet
  facet normal 0 -1 0
    outer loop
      vertex 12.5637 18 11.753
      vertex 18 18 18
      vertex 12.9499 18 13.445
    endloop
  endfacet
  facet normal 0 -1 0
    outer loop
      vertex 18 18 3
      vertex 11 18 11
      vertex 3 18 3
    endloop
  endfacet
  facet normal 0 -1 0
    outer loop
      vertex 12.5637 18 11.753
      vertex 18 18 3
      vertex 18 18 18
    endloop
  endfacet
  facet normal 0 -1 0
    outer loop
      vertex 11 18 11
      vertex 18 18 3
      vertex 12.5637 18 11.753
    endloop
  endfacet
  facet normal 0 1 0
    outer loop
      vertex 133 2 143
      vertex 131 2 5
      vertex 131 2 143
    endloop
  endfacet
  facet normal 0 1 0
    outer loop
      vertex 131 2 5
      vertex 133 2 3
      vertex 5 2 5
    endloop
  endfacet
  facet normal 0 1 -0
    outer loop
      vertex 133 2 3
      vertex 131 2 5
      vertex 133 2 143
    endloop
  endfacet
  facet normal 0 1 -0
    outer loop
      vertex 5 2 5
      vertex 3 2 122.9
      vertex 5 2 122.9
    endloop
  endfacet
  facet normal 0 1 0
    outer loop
      vertex 5 2 5
      vertex 3 2 3
      vertex 3 2 122.9
    endloop
  endfacet
  facet normal 0 1 0
    outer loop
      vertex 3 2 3
      vertex 5 2 5
      vertex 133 2 3
    endloop
  endfacet
  facet normal -1 0 0
    outer loop
      vertex 118 18 3
      vertex 118 32 143
      vertex 118 32 3
    endloop
  endfacet
  facet normal -1 -0 0
    outer loop
      vertex 118 32 143
      vertex 118 18 3
      vertex 118 18 143
    endloop
  endfacet
  facet normal -0 0 1
    outer loop
      vertex 11 32 18
      vertex 18 18 18
      vertex 18 32 18
    endloop
  endfacet
  facet normal 0 0 1
    outer loop
      vertex 18 18 18
      vertex 11 32 18
      vertex 11 18 18
    endloop
  endfacet
  facet normal 1 -0 0
    outer loop
      vertex 11 18 122.9
      vertex 11 32 18
      vertex 11 32 122.9
    endloop
  endfacet
  facet normal 1 0 0
    outer loop
      vertex 11 32 18
      vertex 11 18 122.9
      vertex 11 18 18
    endloop
  endfacet
  facet normal 0 -1 0
    outer loop
      vertex 101.9 32 25.3783
      vertex 101.95 32 25.3283
      vertex 102 32 25.3783
    endloop
  endfacet
  facet normal 0 -1 0
    outer loop
      vertex 38.8497 32 20.4286
      vertex 34 32 25.3783
      vertex 34 32 25.2783
    endloop
  endfacet
  facet normal 0 -1 0
    outer loop
      vertex 34 32 25.3783
      vertex 38.8497 32 20.4286
      vertex 101.9 32 25.3783
    endloop
  endfacet
  facet normal 0 -1 0
    outer loop
      vertex 97.0503 32 20.4286
      vertex 101.9 32 25.3783
      vertex 38.8497 32 20.4286
    endloop
  endfacet
  facet normal 0 -1 -0
    outer loop
      vertex 101.9 32 25.3783
      vertex 97.0503 32 20.4286
      vertex 101.9 32 25.2783
    endloop
  endfacet
  facet normal 0 -1 0
    outer loop
      vertex 34 32 15.4788
      vertex 38.8497 32 20.4286
      vertex 34 32 15.5788
    endloop
  endfacet
  facet normal 0 -1 -0
    outer loop
      vertex 38.8497 32 20.4286
      vertex 34 32 15.4788
      vertex 97.0503 32 20.4286
    endloop
  endfacet
  facet normal 0 -1 0
    outer loop
      vertex 101.9 32 15.4788
      vertex 97.0503 32 20.4286
      vertex 34 32 15.4788
    endloop
  endfacet
  facet normal 0 -1 0
    outer loop
      vertex 97.0503 32 20.4286
      vertex 101.9 32 15.4788
      vertex 101.9 32 15.5788
    endloop
  endfacet
  facet normal 0 -1 0
    outer loop
      vertex 33.9 32 25.3783
      vertex 33.95 32 25.3283
      vertex 34 32 25.3783
    endloop
  endfacet
  facet normal 0 -1 0
    outer loop
      vertex 34 32 25.3783
      vertex 11 32 122.9
      vertex 33.9 32 25.3783
    endloop
  endfacet
  facet normal 0 -1 0
    outer loop
      vertex 11 32 18
      vertex 33.9 32 25.3783
      vertex 11 32 122.9
    endloop
  endfacet
  facet normal 0 -1 0
    outer loop
      vertex 18 32 18
      vertex 33.9 32 25.3783
      vertex 11 32 18
    endloop
  endfacet
  facet normal -0 -1 0
    outer loop
      vertex 29.0503 32 20.4286
      vertex 33.9 32 25.3783
      vertex 18 32 18
    endloop
  endfacet
  facet normal 0 -1 -0
    outer loop
      vertex 33.9 32 25.3783
      vertex 29.0503 32 20.4286
      vertex 33.9 32 25.2783
    endloop
  endfacet
  facet normal 0 -1 0
    outer loop
      vertex 33.9 32 15.4788
      vertex 29.0503 32 20.4286
      vertex 18 32 18
    endloop
  endfacet
  facet normal 0 -1 0
    outer loop
      vertex 29.0503 32 20.4286
      vertex 33.9 32 15.4788
      vertex 33.9 32 15.5788
    endloop
  endfacet
  facet normal 0 -1 0
    outer loop
      vertex 18 32 3
      vertex 34 32 15.4788
      vertex 33.9 32 15.4788
    endloop
  endfacet
  facet normal 0 -1 -0
    outer loop
      vertex 34 32 15.4788
      vertex 18 32 3
      vertex 101.9 32 15.4788
    endloop
  endfacet
  facet normal 0 -1 0
    outer loop
      vertex 118 32 3
      vertex 101.9 32 15.4788
      vertex 18 32 3
    endloop
  endfacet
  facet normal 0 -1 0
    outer loop
      vertex 18 32 3
      vertex 33.9 32 15.4788
      vertex 18 32 18
    endloop
  endfacet
  facet normal 0 -1 0
    outer loop
      vertex 68.1 32 122.9
      vertex 118 32 143
      vertex 68.1 32 143
    endloop
  endfacet
  facet normal 0 -1 0
    outer loop
      vertex 11 32 122.9
      vertex 34 32 25.3783
      vertex 68.1 32 122.9
    endloop
  endfacet
  facet normal 0 -1 0
    outer loop
      vertex 101.9 32 25.3783
      vertex 68.1 32 122.9
      vertex 34 32 25.3783
    endloop
  endfacet
  facet normal 0 -1 0
    outer loop
      vertex 102 32 25.3783
      vertex 68.1 32 122.9
      vertex 101.9 32 25.3783
    endloop
  endfacet
  facet normal 0 -1 0
    outer loop
      vertex 68.1 32 122.9
      vertex 102 32 25.3783
      vertex 118 32 143
    endloop
  endfacet
  facet normal 0 -1 0
    outer loop
      vertex 106.85 32 20.4286
      vertex 102 32 25.3783
      vertex 102 32 25.2783
    endloop
  endfacet
  facet normal 0 -1 0
    outer loop
      vertex 102 32 25.3783
      vertex 106.85 32 20.4286
      vertex 118 32 143
    endloop
  endfacet
  facet normal 0 -1 0
    outer loop
      vertex 102 32 15.4788
      vertex 106.85 32 20.4286
      vertex 102 32 15.5788
    endloop
  endfacet
  facet normal 0 -1 0
    outer loop
      vertex 106.85 32 20.4286
      vertex 118 32 3
      vertex 118 32 143
    endloop
  endfacet
  facet normal 0 -1 0
    outer loop
      vertex 102 32 15.4788
      vertex 118 32 3
      vertex 106.85 32 20.4286
    endloop
  endfacet
  facet normal 0 -1 0
    outer loop
      vertex 101.9 32 15.4788
      vertex 118 32 3
      vertex 102 32 15.4788
    endloop
  endfacet
  facet normal 0 -1 -0
    outer loop
      vertex 33.95 32 15.5288
      vertex 33.9 32 15.4788
      vertex 34 32 15.4788
    endloop
  endfacet
  facet normal 0 -1 -0
    outer loop
      vertex 101.95 32 15.5288
      vertex 101.9 32 15.4788
      vertex 102 32 15.4788
    endloop
  endfacet
  facet normal 1 -0 0
    outer loop
      vertex 18 18 18
      vertex 18 32 3
      vertex 18 32 18
    endloop
  endfacet
  facet normal 1 0 0
    outer loop
      vertex 18 32 3
      vertex 18 18 18
      vertex 18 18 3
    endloop
  endfacet
  facet normal -1 0 0
    outer loop
      vertex 131 0 5
      vertex 131 2 143
      vertex 131 2 5
    endloop
  endfacet
  facet normal -1 -0 0
    outer loop
      vertex 131 2 143
      vertex 131 0 5
      vertex 131 0 143
    endloop
  endfacet
  facet normal -0 0 1
    outer loop
      vertex 5 2 5
      vertex 131 0 5
      vertex 131 2 5
    endloop
  endfacet
  facet normal 0 0 1
    outer loop
      vertex 131 0 5
      vertex 5 2 5
      vertex 5 0 5
    endloop
  endfacet
  facet normal 1 -0 0
    outer loop
      vertex 5 0 122.9
      vertex 5 2 5
      vertex 5 2 122.9
    endloop
  endfacet
  facet normal 1 0 0
    outer loop
      vertex 5 2 5
      vertex 5 0 122.9
      vertex 5 0 5
    endloop
  endfacet
  facet normal -1 0 0
    outer loop
      vertex 90.5 18 0
      vertex 90.5 26 3
      vertex 90.5 26 0
    endloop
  endfacet
  facet normal -1 -0 0
    outer loop
      vertex 90.5 26 3
      vertex 90.5 18 0
      vertex 90.5 18 3
    endloop
  endfacet
  facet normal 1 -0 0
    outer loop
      vertex 45.5 18 3
      vertex 45.5 26 0
      vertex 45.5 26 3
    endloop
  endfacet
  facet normal 1 0 0
    outer loop
      vertex 45.5 26 0
      vertex 45.5 18 3
      vertex 45.5 18 0
    endloop
  endfacet
  facet normal 0 -1 0
    outer loop
      vertex 45.5 26 0
      vertex 90.5 26 3
      vertex 45.5 26 3
    endloop
  endfacet
  facet normal 0 -1 -0
    outer loop
      vertex 90.5 26 3
      vertex 45.5 26 0
      vertex 90.5 26 0
    endloop
  endfacet
  facet normal 0 1 -0
    outer loop
      vertex 90.5 18 0
      vertex 45.5 18 3
      vertex 90.5 18 3
    endloop
  endfacet
  facet normal 0 1 0
    outer loop
      vertex 45.5 18 3
      vertex 90.5 18 0
      vertex 45.5 18 0
    endloop
  endfacet
  facet normal 0.56808 -0.822974 0
    outer loop
      vertex 34.506 24.6525 0
      vertex 36.0816 25.7401 3
      vertex 34.506 24.6525 3
    endloop
  endfacet
  facet normal 0.56808 -0.822974 0
    outer loop
      vertex 36.0816 25.7401 3
      vertex 34.506 24.6525 0
      vertex 36.0816 25.7401 0
    endloop
  endfacet
  facet normal -0.748518 -0.663115 0
    outer loop
      vertex 41.0418 23.8589 0
      vertex 39.7723 25.2919 3
      vertex 39.7723 25.2919 0
    endloop
  endfacet
  facet normal -0.748518 -0.663115 0
    outer loop
      vertex 39.7723 25.2919 3
      vertex 41.0418 23.8589 0
      vertex 41.0418 23.8589 3
    endloop
  endfacet
  facet normal -0.970939 -0.239327 0
    outer loop
      vertex 41.5 22 0
      vertex 41.0418 23.8589 3
      vertex 41.0418 23.8589 0
    endloop
  endfacet
  facet normal -0.970939 -0.239327 0
    outer loop
      vertex 41.0418 23.8589 3
      vertex 41.5 22 0
      vertex 41.5 22 3
    endloop
  endfacet
  facet normal 1 -0 0
    outer loop
      vertex 33.6162 21.0427 3
      vertex 33.6162 22.9573 0
      vertex 33.6162 22.9573 3
    endloop
  endfacet
  facet normal 1 0 0
    outer loop
      vertex 33.6162 22.9573 0
      vertex 33.6162 21.0427 3
      vertex 33.6162 21.0427 0
    endloop
  endfacet
  facet normal 0.885437 -0.46476 0
    outer loop
      vertex 33.6162 22.9573 3
      vertex 34.506 24.6525 0
      vertex 34.506 24.6525 3
    endloop
  endfacet
  facet normal 0.885437 -0.46476 0
    outer loop
      vertex 34.506 24.6525 0
      vertex 33.6162 22.9573 3
      vertex 33.6162 22.9573 0
    endloop
  endfacet
  facet normal -0.970939 0.239327 0
    outer loop
      vertex 41.0418 20.1411 0
      vertex 41.5 22 3
      vertex 41.5 22 0
    endloop
  endfacet
  facet normal -0.970939 0.239327 0
    outer loop
      vertex 41.5 22 3
      vertex 41.0418 20.1411 0
      vertex 41.0418 20.1411 3
    endloop
  endfacet
  facet normal 0.120505 0.992713 -0
    outer loop
      vertex 37.9821 18.0292 0
      vertex 36.0816 18.2599 3
      vertex 37.9821 18.0292 3
    endloop
  endfacet
  facet normal 0.120505 0.992713 0
    outer loop
      vertex 36.0816 18.2599 3
      vertex 37.9821 18.0292 0
      vertex 36.0816 18.2599 0
    endloop
  endfacet
  facet normal -0.748518 0.663115 0
    outer loop
      vertex 39.7723 18.7081 0
      vertex 41.0418 20.1411 3
      vertex 41.0418 20.1411 0
    endloop
  endfacet
  facet normal -0.748518 0.663115 0
    outer loop
      vertex 41.0418 20.1411 3
      vertex 39.7723 18.7081 0
      vertex 39.7723 18.7081 3
    endloop
  endfacet
  facet normal -0.35459 0.935022 0
    outer loop
      vertex 39.7723 18.7081 0
      vertex 37.9821 18.0292 3
      vertex 39.7723 18.7081 3
    endloop
  endfacet
  facet normal -0.35459 0.935022 0
    outer loop
      vertex 37.9821 18.0292 3
      vertex 39.7723 18.7081 0
      vertex 37.9821 18.0292 0
    endloop
  endfacet
  facet normal 0.120505 -0.992713 0
    outer loop
      vertex 36.0816 25.7401 0
      vertex 37.9821 25.9708 3
      vertex 36.0816 25.7401 3
    endloop
  endfacet
  facet normal 0.120505 -0.992713 0
    outer loop
      vertex 37.9821 25.9708 3
      vertex 36.0816 25.7401 0
      vertex 37.9821 25.9708 0
    endloop
  endfacet
  facet normal -0.35459 -0.935022 0
    outer loop
      vertex 37.9821 25.9708 0
      vertex 39.7723 25.2919 3
      vertex 37.9821 25.9708 3
    endloop
  endfacet
  facet normal -0.35459 -0.935022 -0
    outer loop
      vertex 39.7723 25.2919 3
      vertex 37.9821 25.9708 0
      vertex 39.7723 25.2919 0
    endloop
  endfacet
  facet normal 0.56808 0.822974 -0
    outer loop
      vertex 36.0816 18.2599 0
      vertex 34.506 19.3475 3
      vertex 36.0816 18.2599 3
    endloop
  endfacet
  facet normal 0.56808 0.822974 0
    outer loop
      vertex 34.506 19.3475 3
      vertex 36.0816 18.2599 0
      vertex 34.506 19.3475 0
    endloop
  endfacet
  facet normal 0.885437 0.46476 0
    outer loop
      vertex 34.506 19.3475 3
      vertex 33.6162 21.0427 0
      vertex 33.6162 21.0427 3
    endloop
  endfacet
  facet normal 0.885437 0.46476 0
    outer loop
      vertex 33.6162 21.0427 0
      vertex 34.506 19.3475 3
      vertex 34.506 19.3475 0
    endloop
  endfacet
  facet normal 0.56808 -0.822974 0
    outer loop
      vertex 95.506 24.6525 0
      vertex 97.0816 25.7401 3
      vertex 95.506 24.6525 3
    endloop
  endfacet
  facet normal 0.56808 -0.822974 0
    outer loop
      vertex 97.0816 25.7401 3
      vertex 95.506 24.6525 0
      vertex 97.0816 25.7401 0
    endloop
  endfacet
  facet normal -0.748388 -0.663261 0
    outer loop
      vertex 102.042 23.8589 0
      vertex 100.772 25.2919 3
      vertex 100.772 25.2919 0
    endloop
  endfacet
  facet normal -0.748388 -0.663261 0
    outer loop
      vertex 100.772 25.2919 3
      vertex 102.042 23.8589 0
      vertex 102.042 23.8589 3
    endloop
  endfacet
  facet normal -0.970963 -0.239228 0
    outer loop
      vertex 102.5 22 0
      vertex 102.042 23.8589 3
      vertex 102.042 23.8589 0
    endloop
  endfacet
  facet normal -0.970963 -0.239228 0
    outer loop
      vertex 102.042 23.8589 3
      vertex 102.5 22 0
      vertex 102.5 22 3
    endloop
  endfacet
  facet normal 1 -0 0
    outer loop
      vertex 94.6162 21.0427 3
      vertex 94.6162 22.9573 0
      vertex 94.6162 22.9573 3
    endloop
  endfacet
  facet normal 1 0 0
    outer loop
      vertex 94.6162 22.9573 0
      vertex 94.6162 21.0427 3
      vertex 94.6162 21.0427 0
    endloop
  endfacet
  facet normal 0.885437 -0.46476 0
    outer loop
      vertex 94.6162 22.9573 3
      vertex 95.506 24.6525 0
      vertex 95.506 24.6525 3
    endloop
  endfacet
  facet normal 0.885437 -0.46476 0
    outer loop
      vertex 95.506 24.6525 0
      vertex 94.6162 22.9573 3
      vertex 94.6162 22.9573 0
    endloop
  endfacet
  facet normal -0.354642 -0.935002 0
    outer loop
      vertex 98.9821 25.9708 0
      vertex 100.772 25.2919 3
      vertex 98.9821 25.9708 3
    endloop
  endfacet
  facet normal -0.354642 -0.935002 -0
    outer loop
      vertex 100.772 25.2919 3
      vertex 98.9821 25.9708 0
      vertex 100.772 25.2919 0
    endloop
  endfacet
  facet normal -0.970963 0.239228 0
    outer loop
      vertex 102.042 20.1411 0
      vertex 102.5 22 3
      vertex 102.5 22 0
    endloop
  endfacet
  facet normal -0.970963 0.239228 0
    outer loop
      vertex 102.5 22 3
      vertex 102.042 20.1411 0
      vertex 102.042 20.1411 3
    endloop
  endfacet
  facet normal 0.120505 0.992713 -0
    outer loop
      vertex 98.9821 18.0292 0
      vertex 97.0816 18.2599 3
      vertex 98.9821 18.0292 3
    endloop
  endfacet
  facet normal 0.120505 0.992713 0
    outer loop
      vertex 97.0816 18.2599 3
      vertex 98.9821 18.0292 0
      vertex 97.0816 18.2599 0
    endloop
  endfacet
  facet normal -0.748388 0.663261 0
    outer loop
      vertex 100.772 18.7081 0
      vertex 102.042 20.1411 3
      vertex 102.042 20.1411 0
    endloop
  endfacet
  facet normal -0.748388 0.663261 0
    outer loop
      vertex 102.042 20.1411 3
      vertex 100.772 18.7081 0
      vertex 100.772 18.7081 3
    endloop
  endfacet
  facet normal -0.354642 0.935002 0
    outer loop
      vertex 100.772 18.7081 0
      vertex 98.9821 18.0292 3
      vertex 100.772 18.7081 3
    endloop
  endfacet
  facet normal -0.354642 0.935002 0
    outer loop
      vertex 98.9821 18.0292 3
      vertex 100.772 18.7081 0
      vertex 98.9821 18.0292 0
    endloop
  endfacet
  facet normal 0.120505 -0.992713 0
    outer loop
      vertex 97.0816 25.7401 0
      vertex 98.9821 25.9708 3
      vertex 97.0816 25.7401 3
    endloop
  endfacet
  facet normal 0.120505 -0.992713 0
    outer loop
      vertex 98.9821 25.9708 3
      vertex 97.0816 25.7401 0
      vertex 98.9821 25.9708 0
    endloop
  endfacet
  facet normal 0.56808 0.822974 -0
    outer loop
      vertex 97.0816 18.2599 0
      vertex 95.506 19.3475 3
      vertex 97.0816 18.2599 3
    endloop
  endfacet
  facet normal 0.56808 0.822974 0
    outer loop
      vertex 95.506 19.3475 3
      vertex 97.0816 18.2599 0
      vertex 95.506 19.3475 0
    endloop
  endfacet
  facet normal 0.885437 0.46476 0
    outer loop
      vertex 95.506 19.3475 3
      vertex 94.6162 21.0427 0
      vertex 94.6162 21.0427 3
    endloop
  endfacet
  facet normal 0.885437 0.46476 0
    outer loop
      vertex 94.6162 21.0427 0
      vertex 95.506 19.3475 3
      vertex 95.506 19.3475 0
    endloop
  endfacet
endsolid OpenSCAD_Model
